<svg width="44" height="61" viewBox="0 0 44 61" fill="none" xmlns="http://www.w3.org/2000/svg">
<path id="Vector" d="M21.778 1.99249e-06C20.5482 1.99249e-06 19.3184 0.407501 18.3229 1.22041C16.7749 2.48261 16.4417 4.42398 16.8394 6.26922H12.103C11.8178 6.26922 11.5444 6.3793 11.3428 6.57525C11.1412 6.7712 11.028 7.03697 11.028 7.31408V8.35895H4.57795C2.21295 8.35895 0.277954 10.2397 0.277954 12.5384V56.4229C0.277954 58.7216 2.21295 60.6024 4.57795 60.6024H38.978C41.343 60.6024 43.278 58.7216 43.278 56.4229V12.5384C43.278 10.2397 41.343 8.35895 38.978 8.35895H32.528V7.31408C32.528 7.03697 32.4147 6.7712 32.2131 6.57525C32.0115 6.3793 31.7381 6.26922 31.453 6.26922H26.7165C27.1143 4.42398 26.781 2.48261 25.233 1.22041C24.265 0.431084 23.0415 -0.00107078 21.778 1.99249e-06ZM21.778 2.08556C22.5133 2.08556 23.2507 2.33006 23.8527 2.82115C25.0567 3.80332 25.3577 5.46885 24.5708 6.79165C24.4765 6.95049 24.4268 7.13067 24.4268 7.31408C24.4268 7.49749 24.4764 7.67767 24.5708 7.83651C24.6651 7.99535 24.8008 8.12725 24.9643 8.21896C25.1277 8.31067 25.3131 8.35895 25.5018 8.35895H30.378V9.23246C30.3585 9.34592 30.3585 9.46172 30.378 9.57518V13.4119C30.3585 13.5254 30.3585 13.6412 30.378 13.7547V14.6282H13.178V13.7463C13.1964 13.6356 13.1964 13.5227 13.178 13.4119V9.56682C13.1964 9.45609 13.1964 9.34319 13.178 9.23246V8.35895H18.0542C18.2429 8.35895 18.4282 8.31067 18.5916 8.21896C18.7551 8.12725 18.8908 7.99535 18.9851 7.83651C19.0795 7.67767 19.1291 7.49749 19.1291 7.31408C19.1291 7.13067 19.0795 6.95049 18.9851 6.79165C18.6035 6.15388 18.4663 5.40549 18.5978 4.67887C18.7292 3.95225 19.1207 3.29421 19.7032 2.82115C20.3052 2.33006 21.0427 2.08556 21.778 2.08556ZM21.778 4.1753C21.4928 4.1753 21.2194 4.28538 21.0178 4.48133C20.8162 4.67728 20.703 4.94305 20.703 5.22017C20.703 5.49728 20.8162 5.76305 21.0178 5.959C21.2194 6.15495 21.4928 6.26504 21.778 6.26504C22.0631 6.26504 22.3365 6.15495 22.5381 5.959C22.7397 5.76305 22.853 5.49728 22.853 5.22017C22.853 4.94305 22.7397 4.67728 22.5381 4.48133C22.3365 4.28538 22.0631 4.1753 21.778 4.1753ZM4.57795 10.4487H11.028V12.5384H7.80295C6.03565 12.5384 4.57795 13.9553 4.57795 15.673V53.2883C4.57795 55.0061 6.03565 56.4229 7.80295 56.4229H35.753C37.5203 56.4229 38.978 55.0061 38.978 53.2883V15.673C38.978 13.9553 37.5203 12.5384 35.753 12.5384H32.528V10.4487H38.978C40.1884 10.4487 41.128 11.3619 41.128 12.5384V56.4229C41.128 57.5994 40.1884 58.5127 38.978 58.5127H4.57795C3.3675 58.5127 2.42795 57.5994 2.42795 56.4229V12.5384C2.42795 11.3619 3.3675 10.4487 4.57795 10.4487ZM7.80295 14.6282H11.028V15.673C11.028 15.9502 11.1412 16.2159 11.3428 16.4119C11.5444 16.6078 11.8178 16.7179 12.103 16.7179H31.453C31.7381 16.7179 32.0115 16.6078 32.2131 16.4119C32.4147 16.2159 32.528 15.9502 32.528 15.673V14.6282H35.753C36.3679 14.6282 36.828 15.0754 36.828 15.673V53.2883C36.828 53.886 36.3679 54.3332 35.753 54.3332H7.80295C7.66082 54.3366 7.51944 54.312 7.38742 54.2607C7.25539 54.2094 7.13547 54.1325 7.03493 54.0348C6.93439 53.9371 6.85534 53.8205 6.80257 53.6922C6.7498 53.5639 6.72441 53.4265 6.72795 53.2883V15.673C6.72795 15.0754 7.18805 14.6282 7.80295 14.6282ZM9.8605 20.8974C9.5754 20.9112 9.30763 21.0346 9.11611 21.2404C8.92459 21.4461 8.825 21.7174 8.83926 21.9945C8.85351 22.2716 8.98044 22.5319 9.19212 22.718C9.4038 22.9042 9.6829 23.001 9.968 22.9871H12.0858C12.3709 22.9871 12.6443 22.877 12.8459 22.6811C13.0475 22.4851 13.1608 22.2194 13.1608 21.9422C13.1608 21.6651 13.0475 21.3994 12.8459 21.2034C12.6443 21.0075 12.3709 20.8974 12.0858 20.8974H9.97016C9.93363 20.8956 9.89703 20.8956 9.8605 20.8974ZM16.3062 20.8974C16.0211 20.9112 15.7533 21.0346 15.5618 21.2404C15.3703 21.4461 15.2707 21.7174 15.285 21.9945C15.2992 22.2716 15.4261 22.5319 15.6378 22.718C15.8495 22.9042 16.1286 23.001 16.4137 22.9871H27.1358C27.4209 22.9871 27.6943 22.877 27.8959 22.6811C28.0975 22.4851 28.2108 22.2194 28.2108 21.9422C28.2108 21.6651 28.0975 21.3994 27.8959 21.2034C27.6943 21.0075 27.4209 20.8974 27.1358 20.8974H16.4159C16.38 20.8956 16.3442 20.8956 16.3084 20.8974H16.3062ZM9.8605 27.1666C9.5754 27.1805 9.30763 27.3038 9.11611 27.5096C8.92459 27.7153 8.825 27.9866 8.83926 28.2637C8.85351 28.5408 8.98044 28.8011 9.19212 28.9872C9.4038 29.1734 9.6829 29.2702 9.968 29.2563H12.0858C12.3709 29.2563 12.6443 29.1462 12.8459 28.9503C13.0475 28.7543 13.1608 28.4886 13.1608 28.2115C13.1608 27.9343 13.0475 27.6686 12.8459 27.4726C12.6443 27.2767 12.3709 27.1666 12.0858 27.1666H9.97016C9.93363 27.1648 9.89703 27.1648 9.8605 27.1666ZM16.3062 27.1666C16.0211 27.1805 15.7533 27.3038 15.5618 27.5096C15.3703 27.7153 15.2707 27.9866 15.285 28.2637C15.2992 28.5408 15.4261 28.8011 15.6378 28.9872C15.8495 29.1734 16.1286 29.2702 16.4137 29.2563H27.1358C27.4209 29.2563 27.6943 29.1462 27.8959 28.9503C28.0975 28.7543 28.2108 28.4886 28.2108 28.2115C28.2108 27.9343 28.0975 27.6686 27.8959 27.4726C27.6943 27.2767 27.4209 27.1666 27.1358 27.1666H16.4159C16.38 27.1649 16.3442 27.1649 16.3084 27.1666H16.3062ZM9.8605 33.4358C9.5754 33.4497 9.30763 33.573 9.11611 33.7788C8.92459 33.9845 8.825 34.2558 8.83926 34.5329C8.85351 34.81 8.98044 35.0703 9.19212 35.2565C9.4038 35.4426 9.6829 35.5394 9.968 35.5255H12.0858C12.3709 35.5255 12.6443 35.4155 12.8459 35.2195C13.0475 35.0236 13.1608 34.7578 13.1608 34.4807C13.1608 34.2036 13.0475 33.9378 12.8459 33.7418C12.6443 33.5459 12.3709 33.4358 12.0858 33.4358H9.97016C9.93363 33.434 9.89703 33.434 9.8605 33.4358ZM16.3062 33.4358C16.0211 33.4497 15.7533 33.573 15.5618 33.7788C15.3703 33.9845 15.2707 34.2558 15.285 34.5329C15.2992 34.81 15.4261 35.0703 15.6378 35.2565C15.8495 35.4426 16.1286 35.5394 16.4137 35.5255H27.1358C27.4209 35.5255 27.6943 35.4155 27.8959 35.2195C28.0975 35.0236 28.2108 34.7578 28.2108 34.4807C28.2108 34.2036 28.0975 33.9378 27.8959 33.7418C27.6943 33.5459 27.4209 33.4358 27.1358 33.4358H16.4159C16.38 33.4341 16.3442 33.4341 16.3084 33.4358H16.3062ZM22.853 43.8845C22.2209 43.8845 21.7651 44.1687 21.4125 44.4487C21.0883 44.7135 20.7982 45.0152 20.5482 45.3473C20.0752 45.9512 19.7656 46.5385 19.7656 46.5385C19.6338 46.7843 19.608 47.0709 19.6937 47.3352C19.7793 47.5995 19.9695 47.82 20.2224 47.948C20.4753 48.076 20.7702 48.1012 21.0421 48.0179C21.3141 47.9346 21.5409 47.7497 21.6726 47.5039C21.6726 47.5039 21.922 47.0442 22.266 46.6053C22.4273 46.4005 22.6036 46.2166 22.7433 46.1017C22.8078 46.202 22.8573 46.2793 22.9497 46.4528C23.0895 46.7161 23.2486 47.0421 23.541 47.3723C23.8355 47.7066 24.3752 48.064 25.003 48.064C25.6308 48.064 26.1704 47.7066 26.465 47.3744C26.7574 47.04 26.9165 46.7161 27.0562 46.4528C27.0992 46.3692 27.1143 46.3546 27.153 46.2877C27.1917 46.3546 27.2067 46.3713 27.2497 46.4528C27.3895 46.7161 27.5486 47.0421 27.841 47.3723C28.1355 47.7066 28.6752 48.064 29.303 48.064C29.9308 48.064 30.4704 47.7066 30.765 47.3744C31.0574 47.04 31.2165 46.7161 31.3562 46.4528C31.4508 46.2752 31.5046 46.1957 31.5669 46.0975C31.711 46.2146 31.898 46.4005 32.0657 46.6116C32.4162 47.0504 32.6699 47.5123 32.6699 47.5123C32.7315 47.641 32.8195 47.7561 32.9285 47.8507C33.0375 47.9452 33.1652 48.0172 33.3037 48.0622C33.4423 48.1072 33.5888 48.1243 33.7344 48.1124C33.8799 48.1005 34.0215 48.0599 34.1504 47.9931C34.2792 47.9262 34.3928 47.8346 34.484 47.7237C34.5752 47.6128 34.6422 47.485 34.6809 47.3481C34.7196 47.2112 34.7292 47.068 34.7091 46.9274C34.689 46.7867 34.6397 46.6516 34.564 46.5301C34.564 46.5301 34.2458 45.9429 33.7685 45.339C33.5146 45.0079 33.2208 44.7077 32.8935 44.4445C32.5387 44.1666 32.0872 43.8845 31.453 43.8845C30.8209 43.8845 30.2877 44.2648 30.0082 44.595C29.7287 44.9252 29.5825 45.2386 29.4449 45.4957C29.3825 45.6127 29.3546 45.6461 29.303 45.7339C29.2514 45.6482 29.2234 45.6148 29.1611 45.4957C29.0235 45.2386 28.8751 44.9252 28.5978 44.595C28.3183 44.2648 27.7872 43.8845 27.153 43.8845C26.5187 43.8845 25.9855 44.2648 25.7082 44.595C25.4287 44.9252 25.2825 45.2386 25.1449 45.4957C25.0825 45.6127 25.0546 45.6461 25.003 45.7339C24.9514 45.6482 24.9234 45.6148 24.8611 45.4957C24.7235 45.2386 24.5751 44.9252 24.2978 44.595C24.0183 44.2648 23.4872 43.8845 22.853 43.8845ZM20.6105 50.1537C20.3254 50.1676 20.0576 50.2909 19.8661 50.4967C19.6746 50.7024 19.575 50.9737 19.5893 51.2508C19.6035 51.5279 19.7304 51.7882 19.9421 51.9744C20.1538 52.1605 20.4329 52.2573 20.718 52.2434H33.618C33.9031 52.2434 34.1765 52.1334 34.3781 51.9374C34.5797 51.7415 34.693 51.4757 34.693 51.1986C34.693 50.9215 34.5797 50.6557 34.3781 50.4597C34.1765 50.2638 33.9031 50.1537 33.618 50.1537H20.718C20.6822 50.152 20.6463 50.152 20.6105 50.1537Z" fill="#51AB00"/>
</svg>
