<svg width="607" height="431" viewBox="0 0 607 431" fill="none" xmlns="http://www.w3.org/2000/svg">
<g clip-path="url(#clip0_46_90)">
<path d="M150.757 13.4983H546.762C554.991 13.4983 561.639 20.1769 561.639 28.376V381.775C561.639 390.004 554.961 396.653 546.762 396.653H150.757C142.528 396.653 135.879 389.974 135.879 381.775V28.4059C135.879 20.1769 142.558 13.5281 150.757 13.5281V13.4983Z" fill="#9DA9C1"/>
<path d="M552.158 65.4364V360.547C552.158 365.317 548.282 369.163 543.512 369.163H154.037C149.266 369.163 145.39 365.317 145.39 360.547V65.4364C145.39 63.9755 145.748 62.604 146.374 61.4114C147.835 58.6684 150.727 56.8198 154.037 56.8198H543.512C548.282 56.8198 552.158 60.666 552.158 65.4364Z" fill="#CACEDB"/>
<path d="M463.995 36.0981C463.995 41.1666 459.88 45.2513 454.842 45.2513C449.803 45.2513 445.688 41.1368 445.688 36.0981C445.688 31.0593 449.803 26.9448 454.842 26.9448C459.88 26.9448 463.995 31.0593 463.995 36.0981Z" fill="#7D8FAD"/>
<path d="M525.384 36.0981C525.384 41.1666 521.27 45.2513 516.231 45.2513C511.192 45.2513 507.078 41.1368 507.078 36.0981C507.078 31.0593 511.192 26.9448 516.231 26.9448C521.27 26.9448 525.384 31.0593 525.384 36.0981Z" fill="#7D8FAD"/>
<path d="M494.704 36.0981C494.704 41.1666 490.59 45.2513 485.551 45.2513C480.512 45.2513 476.398 41.1368 476.398 36.0981C476.398 31.0593 480.512 26.9448 485.551 26.9448C490.59 26.9448 494.704 31.0593 494.704 36.0981Z" fill="#7D8FAD"/>
<path d="M210.536 40.183H157.644C155.408 40.183 153.59 38.3642 153.59 36.1281C153.59 33.892 155.408 32.0732 157.644 32.0732H210.536C212.773 32.0732 214.591 33.892 214.591 36.1281C214.591 38.3642 212.773 40.183 210.536 40.183Z" fill="#7D8FAD"/>
<path d="M552.158 430.493C582.111 430.493 606.392 406.212 606.392 376.259C606.392 346.307 582.111 322.025 552.158 322.025C522.206 322.025 497.924 346.307 497.924 376.259C497.924 406.212 522.206 430.493 552.158 430.493Z" fill="#51AB00"/>
<path d="M541.812 411.262C541.306 410.874 540.888 410.427 540.59 409.92C539.934 409.801 539.308 409.592 538.682 409.324C534.359 407.326 532.48 402.228 534.478 397.905L537.698 390.958C539.695 386.635 544.794 384.756 549.117 386.754C549.803 387.082 550.429 387.469 550.995 387.946C551.174 388.096 551.294 388.245 551.443 388.394C556.452 379.449 558.807 372.025 559.731 366.122C558.807 366.48 557.793 366.718 556.72 366.748C551.979 366.808 548.044 363.021 547.984 358.28L547.865 350.618C547.805 345.848 551.592 341.942 556.332 341.882C556.839 341.882 557.316 341.912 557.763 342.001C558.002 341.733 558.241 341.495 558.539 341.286C560.477 339.795 563.16 339.914 564.949 341.405C565.247 341.644 565.515 341.942 565.784 342.27C566.529 343.224 583.345 366.36 549.057 410.427C547.298 412.693 544.049 413.081 541.812 411.322V411.262Z" fill="white"/>
<path d="M414.949 40.7195C414.949 40.7195 445.987 44.6253 457.286 74.4106C468.586 104.226 461.908 142.777 461.908 142.777L404.603 129.598L407.078 76.6765L414.949 40.7195Z" fill="black"/>
<path d="M388.473 97.0104C388.473 97.0104 406.154 97.7856 416.35 73.0987C426.547 48.4118 413.786 29.0916 413.786 29.0916L391.574 40.7195L379.499 84.8459L388.443 97.0402L388.473 97.0104Z" fill="black"/>
<path d="M452.039 369.163H276.637C282.48 355.448 288.294 342.329 293.572 330.582C298.312 320.117 302.665 310.785 306.273 303.093C307.704 300.022 309.016 297.249 310.208 294.745C310.357 294.446 310.507 294.118 310.656 293.82C311.192 292.657 311.729 291.554 312.206 290.511C315.128 284.488 316.798 281.059 316.798 281.059C317.901 281.059 330.513 281.03 347.507 282.401C349.982 282.58 352.576 282.818 355.229 283.087C362.385 283.773 370.047 284.727 377.77 286.009C396.851 289.139 416.32 294.267 429.499 302.646C434.538 305.866 438.682 309.592 441.484 313.826C442.14 314.84 442.737 315.854 443.244 316.927C446.523 323.725 449.445 342.717 452.039 369.163Z" fill="#7C6053"/>
<path d="M253.53 145.788C253.53 145.788 236.595 140.183 227.65 131.298C218.706 122.413 208.837 102.974 208.837 102.974L167.454 113.797C167.454 113.797 167.454 186.873 210.477 215.556C251.443 242.866 288.324 232.699 288.324 232.699L253.53 145.788Z" fill="#FCA397"/>
<path d="M379.886 107.893C379.886 107.893 418.765 106.581 438.831 124.768C458.896 142.956 445.718 301.632 445.718 301.632C445.718 301.632 393.363 306.014 355.885 301.632C318.408 297.249 301.473 291.286 301.473 291.286C301.473 291.286 297.09 145.43 307.108 127.899C317.155 110.368 379.857 107.893 379.857 107.893H379.886Z" fill="#0067CB"/>
<path d="M387.847 86.3367L390.322 115.406C390.322 115.406 385.79 124.202 368.885 127.034C356.303 129.151 351.592 126.647 351.592 126.647L352.099 111.769L352.635 97.249L382.778 87.8871L387.847 86.3069V86.3367Z" fill="#FCA397"/>
<path d="M382.778 87.917C382.778 88.722 382.54 89.6761 382.182 90.8091C376.905 105.896 359.374 110.517 352.129 111.799L352.665 97.2789L382.808 87.917H382.778Z" fill="black"/>
<path d="M340.56 31.5366C340.56 31.5366 328.396 69.2825 336.118 89.0201C343.84 108.758 362.027 103.719 372.731 98.6803C383.405 93.6415 387.877 86.3368 387.877 86.3368C387.877 86.3368 398.58 88.8114 404.543 78.4954C410.507 68.1794 405.14 57.5652 398.968 55.6272C392.796 53.6892 386.207 58.6683 386.207 58.6683L390.65 47.6069C390.65 47.6069 362.117 -3.46639 340.59 31.5664L340.56 31.5366Z" fill="#FCA397"/>
<path d="M388.473 74.1423C388.175 74.1423 387.877 74.023 387.668 73.7845C387.281 73.3372 387.34 72.6813 387.787 72.2937L400.101 61.769C400.548 61.3814 401.204 61.441 401.592 61.8882C401.979 62.3355 401.92 62.9914 401.473 63.379L389.159 73.9037C388.95 74.0826 388.712 74.1423 388.473 74.1423Z" fill="black"/>
<path d="M400.399 72.9796C400.399 72.9796 400.28 72.9796 400.22 72.9796L391.395 71.4889C390.829 71.3994 390.441 70.8329 390.53 70.2664C390.62 69.6999 391.157 69.2825 391.753 69.4018L400.578 70.8925C401.145 70.982 401.532 71.5485 401.443 72.115C401.353 72.6218 400.906 73.0094 400.399 73.0094V72.9796Z" fill="black"/>
<path d="M366.112 44.7148C365.814 44.7148 365.545 44.5955 365.337 44.3868C361.162 39.8251 356.69 42.6277 356.511 42.747C356.034 43.0749 355.378 42.9258 355.05 42.419C354.722 41.9419 354.871 41.286 355.349 40.958C357.465 39.5866 362.594 38.2151 366.887 42.9258C367.275 43.3731 367.245 44.029 366.827 44.4166C366.619 44.5955 366.38 44.6849 366.112 44.6849V44.7148Z" fill="black"/>
<path d="M337.787 45.7285C337.519 45.7285 337.251 45.6092 337.042 45.4005C336.625 44.9831 336.654 44.3272 337.042 43.9098C340.888 40.1233 343.81 41.0475 344.138 41.1668C344.675 41.3755 344.973 41.9718 344.764 42.5383C344.555 43.075 343.959 43.3731 343.422 43.1644C343.303 43.1346 341.395 42.6277 338.533 45.4303C338.324 45.6391 338.056 45.7285 337.787 45.7285Z" fill="black"/>
<path d="M466.648 311.858C466.917 329.569 467.215 349.276 467.453 369.163H372.403C373.685 349.127 375.027 328.227 376.368 307.356L376.637 303.152C376.994 297.428 377.352 291.703 377.77 286.009C379.141 264.721 380.512 243.791 381.824 224.172C383.792 194.327 385.581 167.523 386.953 147.13C387.817 134.399 388.503 124.172 388.95 117.285C389.278 112.664 389.487 109.563 389.576 108.161C389.576 107.625 389.636 107.327 389.636 107.327C390.441 107.327 391.276 107.327 392.081 107.386C396.642 107.476 401.145 107.953 405.587 108.728C430.632 112.992 453.321 126.14 463.16 132.461C466.47 134.578 468.318 135.949 468.318 135.949L466.201 216.182L466.052 222.204L465.486 243.105C465.486 243.105 466.022 272.592 466.648 311.858Z" fill="#F9E6D2"/>
<path d="M395.629 189.139H430.006C432.927 189.139 435.313 191.524 435.313 194.446V200.379C435.313 203.301 432.927 205.687 430.006 205.687H395.629C392.707 205.687 390.322 203.301 390.322 200.379V194.446C390.322 191.524 392.707 189.139 395.629 189.139Z" fill="#0067CB"/>
<path d="M344.436 75.4841C343.959 75.4841 343.512 75.1561 343.393 74.6791C340.471 62.3356 347.656 56.3726 347.984 56.1042C348.431 55.7465 349.087 55.8061 349.475 56.2533C349.833 56.7005 349.773 57.3863 349.326 57.7441C349.058 57.9528 342.856 63.1704 345.48 74.1722C345.599 74.7387 345.271 75.3052 344.705 75.4543C344.615 75.4543 344.526 75.4543 344.466 75.4543L344.436 75.4841Z" fill="black"/>
<path d="M339.099 59.682C339.099 59.682 338.98 59.682 338.92 59.682C338.354 59.5627 337.966 59.026 338.086 58.4596L339.248 52.1089L337.31 49.6939C336.953 49.2467 337.012 48.5609 337.489 48.2031C337.936 47.8454 338.622 47.905 338.98 48.382L341.216 51.1548C341.395 51.3934 341.484 51.6915 341.425 52.0195L340.173 58.8472C340.083 59.354 339.636 59.7118 339.129 59.7118L339.099 59.682Z" fill="black"/>
<path d="M356.243 84.5478C354.365 84.5478 352.874 83.8919 352.784 83.862C352.427 83.713 352.188 83.385 352.158 82.9974C352.129 82.6098 352.307 82.252 352.606 82.0135L361.729 75.8119C362.087 75.5734 362.534 75.5734 362.892 75.8119C363.25 76.0207 363.428 76.4381 363.369 76.8555C362.892 80.2842 361.61 82.6098 359.523 83.7726C358.419 84.3987 357.287 84.5776 356.243 84.5776V84.5478ZM355.796 82.4309C356.66 82.4905 357.614 82.4011 358.509 81.8942C359.463 81.3576 360.179 80.4333 360.685 79.1214L355.826 82.4309H355.796Z" fill="black"/>
<path d="M316.321 120.177C316.321 120.177 297.477 130.88 278.545 137.142C260.864 142.985 247.567 143.462 247.567 143.462C247.567 143.462 247.507 166.152 248.253 189.795C249.028 214.184 245.778 231.357 245.778 231.357C245.778 231.357 304.633 243.999 318.288 225.216C331.914 206.432 316.35 120.147 316.35 120.147L316.321 120.177Z" fill="#7772D3"/>
<path d="M205.229 81.6855C205.229 81.6855 197.895 49.0081 188.92 48.3223C179.946 47.6664 186.982 74.6193 186.982 74.6193L162.653 65.317C162.653 65.317 134.955 57.5948 129.439 60.0099C123.923 62.4249 132.987 71.3992 132.987 71.3992C132.987 71.3992 113.279 65.466 116.022 75.0963C118.795 84.6968 132.272 90.2424 132.272 90.2424C132.272 90.2424 112.981 83.4147 117.334 94.6849C119.69 100.767 162.087 126.438 190.65 125.514C219.213 124.589 207.823 102.556 207.823 102.556L205.2 81.6556L205.229 81.6855Z" fill="#FCA397"/>
<path d="M142.946 96.3547C142.647 96.3547 142.349 96.2354 142.141 95.9969C141.753 95.5496 141.813 94.8937 142.26 94.5061L166.798 73.5461C167.245 73.1585 167.901 73.2181 168.288 73.6653C168.676 74.1126 168.616 74.7685 168.169 75.1561L143.631 96.1161C143.423 96.295 143.184 96.3845 142.946 96.3845V96.3547Z" fill="black"/>
<path d="M194.496 108.31C194.049 108.31 185.82 107.565 182.003 100.797C178.813 95.1917 179.708 87.2609 184.687 77.243C184.955 76.7063 185.581 76.4976 186.118 76.7659C186.655 77.0343 186.863 77.6604 186.595 78.1971C181.974 87.5292 181.049 94.8041 183.852 99.7534C187.102 105.538 194.526 106.223 194.615 106.223C195.211 106.283 195.629 106.79 195.599 107.356C195.569 107.923 195.092 108.34 194.556 108.34L194.496 108.31Z" fill="black"/>
<path d="M357.525 58.4894C357.525 58.4894 357.406 58.4894 357.346 58.4894C356.78 58.3701 356.392 57.8334 356.511 57.2669L357.674 50.976L355.17 48.2628C354.782 47.8454 354.812 47.1596 355.229 46.772C355.647 46.3844 356.332 46.4142 356.72 46.8316L359.582 49.9324C359.821 50.1709 359.91 50.5287 359.851 50.8567L358.598 57.6844C358.509 58.1912 358.062 58.549 357.555 58.549L357.525 58.4894Z" fill="black"/>
<path d="M386.177 58.6383L382.808 62.5441L384.508 56.909C384.508 56.909 376.547 56.8494 366.142 50.2603C355.736 43.6711 353.261 27.6902 353.261 27.6902C353.261 27.6902 348.759 29.8071 343.81 33.6532C338.861 37.4994 337.817 41.6139 337.817 41.6139C337.817 41.6139 324.758 5.44813 352.158 0.737337C379.558 -3.97345 398.998 19.2525 398.998 19.2525C398.998 19.2525 414.681 21.429 416.231 36.7838C417.811 52.1386 407.078 64.0647 407.078 64.0647C407.078 64.0647 400.071 51.3336 386.207 58.6383H386.177Z" fill="black"/>
<path d="M352.158 110.547C352.158 110.547 345.659 138.126 337.728 171.906C336.654 176.587 335.521 181.387 334.388 186.247C331.109 200.26 327.74 214.78 324.52 228.436C320.703 244.864 317.185 260.04 314.532 271.638C312.564 280.165 311.073 286.724 310.268 290.421C310.029 291.465 309.88 292.3 309.761 292.866C309.672 293.194 309.642 293.403 309.612 293.582C309.433 294.595 308.211 297.994 306.273 303.093C303.679 309.771 299.773 319.402 295.211 330.552C290.352 342.329 284.776 355.776 279.201 369.163H262.594L270.137 330.642L278.902 285.86L280.87 275.782L281.228 273.934L284.418 257.595L287.31 242.836L288.324 237.708C288.324 237.708 265.545 241.554 222.105 224.321C214.949 221.489 208.36 217.076 202.367 211.68C197.358 207.207 192.737 202.049 188.563 196.504C166.261 167.136 155.2 127.959 155.2 127.959L167.871 122.502L168.497 122.234L208.807 104.882L209.642 104.524L213.101 103.033C213.101 103.033 233.852 130.702 252.546 135.293C254.275 135.711 255.915 135.949 257.555 135.949C277.292 135.949 299.624 125.603 321.031 117.374C334.687 112.127 343.572 110.785 348.223 110.547C350.876 110.368 352.158 110.547 352.158 110.547Z" fill="#F9E6D2"/>
<path d="M351.592 126.647L349.952 139.736C349.952 139.736 386.058 124.619 388.473 117.821C390.888 111.024 353.202 121.608 353.202 121.608L351.592 126.647Z" fill="#FCA397"/>
<path d="M349.952 140.779C349.743 140.779 349.505 140.72 349.326 140.57C349.028 140.362 348.849 140.004 348.879 139.646L350.28 116.122C350.31 115.526 350.757 115.138 351.413 115.138C352.009 115.168 352.427 115.675 352.397 116.271L351.085 138.096C357.644 135.293 382.808 124.262 387.579 117.225C387.907 116.748 388.563 116.629 389.04 116.957C389.517 117.285 389.666 117.941 389.308 118.418C383.494 127.005 351.681 140.153 350.31 140.72C350.19 140.779 350.041 140.809 349.922 140.809L349.952 140.779Z" fill="white"/>
<path d="M323.446 330.523L237.519 330.731C234.389 330.731 231.198 328.078 230.393 324.798L197.507 192.091C196.702 188.811 198.581 186.128 201.681 186.128L287.609 185.919C290.739 185.919 293.929 188.573 294.734 191.852L327.62 324.56C328.425 327.839 326.547 330.523 323.446 330.523Z" fill="#0354A4"/>
<path d="M313.428 330.523L227.501 330.731C224.371 330.731 221.18 328.078 220.375 324.798L187.489 192.091C186.684 188.811 188.563 186.128 191.663 186.128L277.591 185.919C280.721 185.919 283.911 188.573 284.717 191.852L317.603 324.56C318.408 327.839 316.529 330.523 313.428 330.523Z" fill="#0067CB"/>
<path d="M252.934 166.45C252.755 166.45 252.576 166.45 252.427 166.45C250.817 166.301 249.564 165.526 248.67 164.154C244.198 157.267 251.234 135.919 251.532 134.995C251.681 134.577 252.069 134.279 252.546 134.279C253.023 134.279 253.411 134.577 253.56 135.025C254.335 137.47 260.924 159.175 256.243 164.959C255.408 165.973 254.305 166.509 252.963 166.509L252.934 166.45ZM252.486 138.99C250.399 146.265 247.656 158.698 250.429 162.961C250.966 163.796 251.651 164.214 252.606 164.303C253.47 164.393 254.096 164.154 254.573 163.558C257.465 160.01 254.633 146.712 252.486 138.96V138.99Z" fill="#FFBF69"/>
<path d="M354.126 236.993C354.126 236.993 327.68 227.988 322.641 228.316C317.603 228.615 304.842 232.64 304.842 232.64L306.631 239.855C306.631 239.855 262.206 244.715 262.236 253.48C262.236 259.443 281.526 258.43 281.526 258.43C281.526 258.43 261.61 261.113 262.236 267.911C262.862 274.709 287.459 273.993 287.459 273.993C287.459 273.993 267.096 278.078 274.728 284.011C282.361 289.944 347.477 296.742 357.316 280.612C367.155 264.512 354.126 236.963 354.126 236.963V236.993Z" fill="#FCA397"/>
<path d="M468.318 135.979C468.318 135.979 542.558 206.521 526.905 266.957C506.213 346.921 346.195 300.379 346.195 300.379L351.592 225.842L447.746 220.564L468.318 135.949V135.979Z" fill="#F9E6D2"/>
<path d="M463.309 223.307C453.232 223.307 441.604 222.085 440.858 221.995C440.381 221.936 440.024 221.608 439.934 221.131C439.845 220.654 440.083 220.207 440.501 219.998C454.812 212.902 472.552 214.542 477.084 217.732C478.187 218.507 478.336 219.342 478.276 219.879C478.157 220.743 477.471 221.429 476.189 221.936C473.536 222.95 468.646 223.307 463.339 223.307H463.309ZM445.152 220.296C452.993 220.982 469.898 222.115 475.414 219.968C475.772 219.819 475.981 219.7 476.1 219.64C474.46 217.881 459.702 214.721 445.182 220.296H445.152Z" fill="#FFBF69"/>
<path d="M305.438 239.885C304.931 239.885 304.484 239.527 304.394 239.02C304.275 238.453 304.663 237.887 305.229 237.797L316.917 235.621C317.513 235.502 318.05 235.889 318.139 236.456C318.259 237.022 317.871 237.589 317.304 237.678L305.617 239.855C305.617 239.855 305.498 239.855 305.408 239.855L305.438 239.885Z" fill="black"/>
<path d="M278.247 259.384C277.71 259.384 277.263 258.996 277.203 258.459C277.143 257.863 277.561 257.356 278.127 257.267L307.913 253.659C308.539 253.6 309.016 254.017 309.105 254.583C309.165 255.18 308.747 255.687 308.181 255.776L278.396 259.384C278.396 259.384 278.306 259.384 278.276 259.384H278.247Z" fill="black"/>
<path d="M283.792 275.842C283.256 275.842 282.808 275.454 282.749 274.918C282.689 274.321 283.077 273.814 283.673 273.725L313.995 269.879C314.621 269.789 315.098 270.207 315.188 270.803C315.247 271.399 314.86 271.906 314.263 271.996L283.941 275.842C283.941 275.842 283.852 275.842 283.822 275.842H283.792Z" fill="black"/>
<path d="M251.115 206.76H230.214C224.758 206.76 220.018 203.063 218.676 197.786L215.724 186.188C215.575 185.621 215.933 185.055 216.499 184.905C217.096 184.756 217.632 185.114 217.781 185.681L220.733 197.279C221.836 201.632 225.742 204.643 230.214 204.643H251.115C253.56 204.643 255.855 203.54 257.406 201.632C258.956 199.724 259.523 197.249 259.016 194.834L257.137 186.217C257.018 185.651 257.376 185.084 257.942 184.965C258.539 184.846 259.075 185.204 259.195 185.77L261.073 194.387C261.729 197.428 260.984 200.529 259.046 202.944C257.108 205.359 254.216 206.73 251.115 206.73V206.76Z" fill="white"/>
<path d="M400.757 144.446C400.757 144.446 400.548 144.446 400.429 144.416C399.684 144.238 399.207 143.462 399.386 142.717C402.367 130.135 401.86 120.236 397.925 114.094C394.883 109.354 390.888 108.519 390.858 108.489C390.083 108.34 389.606 107.595 389.755 106.82C389.904 106.044 390.65 105.538 391.425 105.716C391.634 105.746 396.643 106.82 400.31 112.544C404.722 119.431 405.349 129.807 402.158 143.343C402.009 143.999 401.413 144.416 400.787 144.416L400.757 144.446Z" fill="#46467F"/>
<path d="M332.093 176.825C331.318 176.825 330.691 176.199 330.691 175.424C330.691 173.218 330.393 121.489 349.803 107.356C350.429 106.909 351.323 107.028 351.771 107.654C352.218 108.281 352.099 109.175 351.473 109.622C333.226 122.92 333.494 174.858 333.524 175.394C333.524 176.17 332.898 176.825 332.123 176.825H332.093Z" fill="#46467F"/>
<path d="M398.044 190.928C397.865 190.928 397.656 190.898 397.477 190.809C396.762 190.511 396.434 189.676 396.762 188.96C396.911 188.632 410.566 157.058 400.459 146.116C399.207 144.745 397.716 144.148 395.897 144.327C386.714 145.132 372.403 164.423 367.662 171.787C367.245 172.443 366.35 172.622 365.724 172.204C365.068 171.787 364.889 170.922 365.307 170.266C366.022 169.133 383.226 142.598 395.659 141.524C398.342 141.286 400.668 142.18 402.546 144.208C413.876 156.492 399.952 188.722 399.356 190.093C399.117 190.63 398.61 190.928 398.074 190.928H398.044Z" fill="#46467F"/>
<path d="M340.53 178.137C340.53 182.789 336.774 186.575 332.093 186.575C327.412 186.575 323.655 182.818 323.655 178.137C323.655 173.456 327.412 169.7 332.093 169.7C336.774 169.7 340.53 173.456 340.53 178.137Z" fill="#46467F"/>
<path d="M335.372 178.138C335.372 179.956 333.911 181.417 332.093 181.417C330.274 181.417 328.813 179.956 328.813 178.138C328.813 176.319 330.274 174.858 332.093 174.858C333.911 174.858 335.372 176.319 335.372 178.138Z" fill="#DD6B50"/>
<path d="M372.761 173.874H361.878C361.103 173.874 360.477 173.248 360.477 172.473C360.477 171.697 361.103 171.071 361.878 171.071H372.761C373.536 171.071 374.162 171.697 374.162 172.473C374.162 173.248 373.536 173.874 372.761 173.874Z" fill="#46467F"/>
<path d="M399.624 195.579C399.147 195.579 398.7 195.341 398.431 194.894L392.737 185.621C392.319 184.965 392.528 184.101 393.214 183.683C393.87 183.266 394.734 183.474 395.152 184.16L400.846 193.433C401.264 194.089 401.055 194.953 400.369 195.371C400.131 195.52 399.892 195.579 399.624 195.579Z" fill="#46467F"/>
<path d="M183.047 238.424V342.866C183.047 348.62 178.396 353.272 172.671 353.272H10.9838C5.25925 353.272 0.608093 348.62 0.608093 342.866V238.424C0.608093 232.669 5.25925 228.018 10.9838 228.018H172.671C178.396 228.018 183.047 232.669 183.047 238.424Z" fill="#51AB00"/>
<path d="M124.609 353.271H139.606L135.522 326.825L135.194 324.619L123.625 330.821C123.625 330.821 120.972 349.753 120.972 350.35C120.972 350.558 121.479 351.751 122.164 353.271H124.609Z" fill="#FCA397"/>
<path d="M124.609 353.272L123.118 339.229L135.522 326.826L136.893 325.484C136.893 325.484 126.398 289.974 118.795 283.415C115.545 280.642 108.241 278.495 99.5049 277.78C94.973 277.392 90.0237 277.422 85.0744 277.899C76.0404 278.793 66.9766 281.298 60.1489 286.039C42.4387 298.352 34.1203 329.777 34.1203 329.777L36.0881 329.837L50.936 330.225L61.2521 330.493L61.1626 353.272C61.3415 353.361 61.4906 353.301 61.6397 353.272H124.609Z" fill="#DD6B50"/>
<path d="M102.486 252.288C102.486 252.288 110.358 242.538 107.048 238.662C103.739 234.786 98.6403 238.662 98.6403 238.662C98.6403 238.662 98.3719 234.071 93.2437 234.548C88.1453 235.025 85.0744 240.451 85.0744 240.451C85.0744 240.451 80.5723 235.949 77.5013 240.451C74.4304 244.953 76.5472 252.258 76.5472 252.258C76.5472 252.258 72.9992 251.721 73.9533 255.895C74.9074 260.069 80.4828 264.333 80.4828 264.333L102.486 252.258V252.288Z" fill="black"/>
<path d="M85.2234 267.643L85.0743 278.644C85.0743 278.644 87.0123 281.835 93.4524 282.431C98.2526 282.878 99.7136 279.748 99.7136 279.748L99.3558 276.229L98.7595 270.803L87.1912 268.09L85.2532 267.643H85.2234Z" fill="#FCA397"/>
<path d="M87.1614 268.12C87.1614 268.418 87.2807 268.776 87.4596 269.193C89.8448 274.709 96.5532 275.991 99.326 276.289L98.7297 270.863L87.1614 268.149V268.12Z" fill="black"/>
<path d="M101.532 245.788C101.532 245.788 107.108 259.652 104.752 267.285C102.367 274.917 95.3904 273.486 91.2461 271.906C87.1018 270.296 85.2234 267.672 85.2234 267.672C85.2234 267.672 81.258 268.895 78.7536 265.168C76.2491 261.441 77.9784 257.326 80.2443 256.432C82.5103 255.538 85.134 257.237 85.134 257.237L83.1662 253.212C83.1662 253.212 92.5282 233.236 101.562 245.848L101.532 245.788Z" fill="#FCA397"/>
<path d="M84.6271 263.081C84.6271 263.081 84.4482 263.081 84.3886 262.991L79.4691 259.354C79.2902 259.235 79.2604 258.966 79.3797 258.787C79.4989 258.609 79.7673 258.579 79.9462 258.698L84.8656 262.335C85.0445 262.455 85.0744 262.723 84.9551 262.902C84.8656 263.021 84.7464 263.051 84.6271 263.051V263.081Z" fill="black"/>
<path d="M80.125 262.962C79.9461 262.962 79.7672 262.842 79.7374 262.663C79.6778 262.455 79.8269 262.246 80.0356 262.186L83.3152 261.381C83.524 261.322 83.7327 261.471 83.7923 261.68C83.8519 261.888 83.7028 262.097 83.4941 262.157L80.2145 262.962C80.2145 262.962 80.1548 262.962 80.125 262.962Z" fill="black"/>
<path d="M92.5282 251.99C92.2002 251.9 92.0809 251.662 92.1406 251.453C92.9456 249.187 94.9432 248.889 95.8675 249.068C96.0762 249.098 96.2252 249.306 96.1954 249.545C96.1656 249.753 95.9569 249.903 95.7184 249.873C95.6289 249.873 93.6611 249.545 92.8859 251.721C92.8263 251.87 92.6772 251.99 92.4983 251.99H92.5282Z" fill="black"/>
<path d="M102.934 251.035C102.934 251.035 102.755 251.006 102.665 250.946C101.86 250.26 101.502 250.141 101.413 250.111C101.294 250.171 101.115 250.141 100.996 250.022C100.817 249.873 100.817 249.634 100.966 249.455C101.473 248.859 102.755 249.962 103.172 250.32C103.351 250.469 103.351 250.708 103.232 250.886C103.142 250.976 103.053 251.035 102.934 251.035Z" fill="black"/>
<path d="M100.936 261.501C100.936 261.501 100.757 261.501 100.697 261.411C100.519 261.292 100.489 261.024 100.608 260.845C101.711 259.414 99.7434 256.73 98.8788 255.806C98.7297 255.657 98.7297 255.389 98.8788 255.239C99.0279 255.09 99.2962 255.09 99.4453 255.239C99.5943 255.389 102.963 259.026 101.234 261.292C101.145 261.381 101.025 261.441 100.906 261.441L100.936 261.501Z" fill="black"/>
<path d="M102.814 256.343C102.635 256.343 102.486 256.223 102.427 256.044L101.771 253.51C101.711 253.301 101.83 253.093 102.069 253.033C102.278 252.973 102.486 253.122 102.546 253.331L103.202 255.865C103.262 256.074 103.142 256.283 102.904 256.343C102.874 256.343 102.844 256.343 102.814 256.343Z" fill="black"/>
<path d="M95.8377 256.372C95.6588 256.372 95.5097 256.253 95.4501 256.074L94.7941 253.54C94.7345 253.331 94.8538 253.122 95.0923 253.063C95.301 253.003 95.5097 253.152 95.5693 253.361L96.2253 255.895C96.2849 256.104 96.1656 256.313 95.9271 256.372C95.8973 256.372 95.8675 256.372 95.8377 256.372Z" fill="black"/>
<path d="M102.635 248.919C102.635 248.919 101.473 246.682 98.7297 246.623C95.9867 246.563 94.3469 248.471 94.3469 248.471C94.3469 248.471 95.4798 253.093 91.7231 255.508C87.9664 257.923 85.0743 257.177 85.0743 257.177L82.391 256.164L80.453 252.168L88.3838 243.85L98.5806 238.632L103.679 243.403L102.606 248.889L102.635 248.919Z" fill="black"/>
<path d="M98.0141 265.824C97.388 265.824 95.1817 265.675 94.1978 263.498C94.1084 263.289 94.1978 263.051 94.4065 262.962C94.6152 262.872 94.8537 262.962 94.9432 263.17C95.8376 265.168 98.044 265.049 98.1334 265.019C98.3421 265.019 98.5508 265.168 98.5508 265.377C98.5508 265.585 98.4017 265.794 98.193 265.794C98.193 265.794 98.1334 265.794 98.0141 265.794V265.824Z" fill="black"/>
<path d="M116.977 326.826C116.768 326.826 116.589 326.676 116.559 326.468L113.399 299.604C113.399 299.396 113.518 299.187 113.757 299.157C113.965 299.097 114.174 299.306 114.204 299.515L117.364 326.378C117.364 326.587 117.245 326.796 117.006 326.826C117.006 326.826 116.977 326.826 116.947 326.826H116.977Z" fill="white"/>
<path d="M78.7535 326.02C78.8728 323.993 82.1227 318.209 83.8519 317.106C86.6546 315.317 90.9181 312.693 92.1703 312.455C94.0785 312.067 99.2664 315.198 99.2664 315.198C99.2664 315.198 116.261 312.663 117.126 315.943C117.692 318.179 110.447 319.67 110.447 319.67C110.447 319.67 118.11 318.716 118.557 321.31C118.974 323.904 109.761 326.05 109.761 326.05C109.761 326.05 117.722 325.573 115.486 328.525C113.25 331.477 89.6659 340.362 84.4184 335.323C80.9897 332.013 78.5746 329.837 78.7834 326.05L78.7535 326.02Z" fill="#FCA397"/>
<path d="M101.264 321.369C101.055 321.369 100.876 321.22 100.847 321.012C100.847 320.773 100.966 320.594 101.204 320.564L112.653 318.984C112.862 318.984 113.071 319.103 113.101 319.342C113.101 319.58 112.981 319.759 112.743 319.789L101.294 321.369C101.294 321.369 101.264 321.369 101.234 321.369H101.264Z" fill="black"/>
<path d="M70.4053 327.213C70.137 327.183 69.9581 326.975 70.0177 326.736L71.9855 313.796C72.0153 313.588 72.224 313.439 72.4626 313.468C72.6713 313.498 72.8501 313.707 72.7905 313.945L70.8227 326.885C70.8227 327.094 70.614 327.243 70.4351 327.243L70.4053 327.213Z" fill="white"/>
<path d="M102.158 327.63C101.95 327.63 101.771 327.481 101.741 327.273C101.741 327.064 101.86 326.855 102.099 326.825L111.103 325.633C111.312 325.633 111.52 325.752 111.55 325.991C111.55 326.199 111.431 326.408 111.192 326.438L102.188 327.63C102.188 327.63 102.158 327.63 102.129 327.63H102.158Z" fill="black"/>
<path d="M89.6063 317.792L88.1751 336.068C88.1751 336.068 87.9962 336.277 87.6385 336.635C85.2234 339.199 74.5198 349.843 61.6397 353.271C61.4906 353.301 61.3415 353.361 61.1626 353.391C57.5848 354.315 53.8281 354.643 50.0416 354.077C48.7595 353.898 47.5967 353.629 46.5234 353.271C31.1984 348.501 36.0881 329.837 36.0881 329.837L50.936 330.224L70.8525 323.814L81.0791 320.534L89.6063 317.792Z" fill="#FCA397"/>
<path d="M94.5854 282.878C89.1889 282.878 84.9849 279.091 84.806 278.942C84.6272 278.793 84.6272 278.525 84.806 278.376C84.9551 278.197 85.2235 278.197 85.3725 278.376C85.4023 278.406 89.5168 282.103 94.5854 282.103C98.7893 282.103 99.326 279.807 99.326 279.718C99.3856 279.509 99.5645 279.36 99.8031 279.39C100.012 279.419 100.161 279.628 100.131 279.867C100.131 279.986 99.4751 282.908 94.6152 282.908L94.5854 282.878Z" fill="white"/>
<path d="M87.1614 315.049C87.1614 315.049 98.1334 307.654 100.25 308.728C103.381 310.338 95.8078 320.147 95.8078 320.147L87.1614 315.049Z" fill="#FCA397"/>
<path d="M169.719 237.529C169.719 239.288 168.318 240.69 166.559 240.69C164.8 240.69 163.399 239.288 163.399 237.529C163.399 235.77 164.8 234.369 166.559 234.369C168.318 234.369 169.719 235.77 169.719 237.529Z" fill="#D0D5E2"/>
<path d="M160.387 237.529C160.387 239.288 158.986 240.69 157.227 240.69C155.468 240.69 154.067 239.288 154.067 237.529C154.067 235.77 155.468 234.369 157.227 234.369C158.986 234.369 160.387 235.77 160.387 237.529Z" fill="#D0D5E2"/>
<path d="M150.727 237.529C150.727 239.288 149.326 240.69 147.567 240.69C145.808 240.69 144.406 239.288 144.406 237.529C144.406 235.77 145.808 234.369 147.567 234.369C149.326 234.369 150.727 235.77 150.727 237.529Z" fill="#D0D5E2"/>
</g>
<defs>
<clipPath id="clip0_46_90">
<rect width="605.784" height="430.381" fill="white" transform="translate(0.608093 0.111328)"/>
</clipPath>
</defs>
</svg>
