<svg width="269" height="280" viewBox="0 0 269 280" fill="none" xmlns="http://www.w3.org/2000/svg">
<g clip-path="url(#clip0_46_213)">
<path d="M8.72914 64.9268H230.198C234.8 64.9268 238.519 68.668 238.519 73.2611V271.231C238.519 275.841 234.783 279.565 230.198 279.565H8.72914C4.12701 279.565 0.40863 275.824 0.40863 271.231V73.2611C0.40863 68.6513 4.14369 64.9268 8.72914 64.9268Z" fill="#9DA9C1"/>
<path d="M233.233 94.0213V259.339C233.233 262.011 231.065 264.165 228.397 264.165H10.58C7.91211 264.165 5.74445 262.011 5.74445 259.339V94.0213C5.74445 91.349 7.91211 89.1777 10.58 89.1777H228.397C231.065 89.1777 233.233 91.349 233.233 94.0213Z" fill="#CACEDB"/>
<path d="M183.927 77.5865C183.927 80.4259 181.626 82.7141 178.808 82.7141C175.99 82.7141 173.689 80.4092 173.689 77.5865C173.689 74.7639 175.99 72.459 178.808 72.459C181.626 72.459 183.927 74.7639 183.927 77.5865Z" fill="#7D8FAD"/>
<path d="M218.243 77.5865C218.243 80.4259 215.941 82.7141 213.123 82.7141C210.306 82.7141 208.004 80.4092 208.004 77.5865C208.004 74.7639 210.306 72.459 213.123 72.459C215.941 72.459 218.243 74.7639 218.243 77.5865Z" fill="#7D8FAD"/>
<path d="M201.085 77.5865C201.085 80.4259 198.783 82.7141 195.966 82.7141C193.148 82.7141 190.846 80.4092 190.846 77.5865C190.846 74.7639 193.148 72.459 195.966 72.459C198.783 72.459 201.085 74.7639 201.085 77.5865Z" fill="#7D8FAD"/>
<path d="M42.1779 79.8584H12.5976C11.347 79.8584 10.3299 78.8396 10.3299 77.5869C10.3299 76.3343 11.347 75.3154 12.5976 75.3154H42.1779C43.4285 75.3154 44.4456 76.3343 44.4456 77.5869C44.4456 78.8396 43.4285 79.8584 42.1779 79.8584Z" fill="#7D8FAD"/>
<path d="M238.535 200.48C255.286 200.48 268.866 186.878 268.866 170.099C268.866 153.32 255.286 139.718 238.535 139.718C221.784 139.718 208.205 153.32 208.205 170.099C208.205 186.878 221.784 200.48 238.535 200.48Z" fill="#51AB00"/>
<path d="M230.115 151.092C230.465 151.076 230.815 151.126 231.115 151.226C231.432 151.059 231.782 150.909 232.149 150.808C234.717 150.124 237.351 151.66 238.035 154.232L239.135 158.375C239.819 160.947 238.285 163.586 235.717 164.27C235.3 164.387 234.884 164.437 234.483 164.437C234.367 164.437 234.25 164.421 234.133 164.404C235.15 170.049 236.784 174.108 238.502 176.981C238.769 176.496 239.119 176.029 239.569 175.644C241.587 173.924 244.638 174.158 246.355 176.196L249.123 179.453C250.841 181.49 250.607 184.53 248.573 186.25C248.356 186.434 248.14 186.584 247.906 186.718C247.906 186.918 247.873 187.102 247.839 187.303C247.523 188.639 246.339 189.541 245.022 189.541C244.805 189.541 244.588 189.524 244.371 189.457C243.721 189.307 228.214 185.332 227.313 154.049C227.263 152.445 228.514 151.109 230.115 151.076V151.092Z" fill="white"/>
<path d="M170.937 255.798L171.921 262.562L172.221 264.566H189.629C189.079 262.312 188.545 260.24 188.079 258.47C187.161 255.013 186.511 252.741 186.511 252.741L177.09 254.595L170.937 255.798Z" fill="#FCA397"/>
<path d="M124.599 127.342C124.599 127.342 149.594 129.597 163.951 153.23C178.307 176.864 193.098 255.931 193.098 255.931C193.098 255.931 179.891 263.898 168.053 262.395L156.214 260.892L104.74 150.357L97.1199 130.532L124.599 127.309V127.342Z" fill="#F9E6D2"/>
<path d="M124.999 131C124.999 131 145.609 151.994 157.481 190.86C169.353 229.726 170.52 248.733 170.52 248.733C170.52 248.733 138.956 250.303 114.311 246.027C89.6831 241.768 86.2649 241.267 86.2649 241.267L103.356 125.755L124.999 131Z" fill="#0067CB"/>
<path d="M145.109 153.698C145.109 153.698 146.143 158.392 147.76 165.857C148.194 167.845 148.66 170.016 149.177 172.354C151.028 180.989 153.346 191.779 155.68 202.886C156.114 204.924 156.547 206.995 156.981 209.066C157.081 209.517 157.164 209.968 157.264 210.419C157.865 213.258 158.448 216.097 159.032 218.886C159.115 219.337 159.215 219.772 159.299 220.206C160.566 226.319 161.766 232.248 162.85 237.66C163.05 238.712 163.25 239.747 163.451 240.749C164.017 243.672 164.551 246.395 165.018 248.9C165.068 249.201 165.135 249.501 165.185 249.802C165.852 253.426 166.585 257.669 167.369 262.312C167.486 263.063 167.602 263.798 167.736 264.567H178.708C178.558 263.631 178.407 262.696 178.257 261.744C177.857 259.372 177.474 256.984 177.09 254.596C176.34 249.969 175.573 245.359 174.822 240.816C174.272 237.509 173.722 234.236 173.205 231.046C172.638 227.672 172.088 224.381 171.554 221.241L170.304 213.726C169.954 211.721 169.637 209.784 169.32 207.947C169.12 206.727 168.92 205.558 168.736 204.422C166.969 194.05 165.818 187.353 165.818 187.353L159.432 176.964L156.831 172.739L145.109 153.698Z" fill="#F9E6D2"/>
<path d="M78.7781 264.567H170.437C170.304 263.882 170.187 263.214 170.054 262.546C169.02 257.268 168.086 252.608 167.319 248.833C166.585 245.176 166.002 242.353 165.635 240.566C165.351 239.146 165.185 238.395 165.185 238.395C165.185 238.395 164.351 238.127 162.85 237.66C159.265 236.557 151.862 234.419 142.974 232.482C141.657 232.181 140.29 231.897 138.906 231.613C138.356 231.513 137.789 231.413 137.222 231.296C135.688 231.012 134.137 230.728 132.553 230.461C125.466 229.292 118.046 228.473 111.243 228.507C100.688 228.574 91.584 230.728 87.3321 236.758C87.1987 236.941 87.0986 237.075 87.0153 237.209C86.9486 237.309 86.8986 237.392 86.8485 237.493C86.6318 237.827 86.4483 238.144 86.2816 238.495C83.447 244.224 80.9625 253.293 78.7781 264.567Z" fill="#0067CB"/>
<path d="M113.794 77.8872C113.794 77.8872 100.838 47.6898 83.6471 61.92C69.2738 73.8286 89.6665 94.155 102.272 89.2279C114.878 84.2841 113.794 77.8872 113.794 77.8872Z" fill="black"/>
<path d="M132.753 102.957C132.753 102.957 138.489 97.0281 137.205 87.5079C136.338 81.0442 133.57 78.8729 133.57 78.8729C133.57 78.8729 138.206 70.2547 125.266 70.3549C112.31 70.4384 104.49 76.5513 104.49 76.5513C104.49 76.5513 98.6706 73.4448 95.786 80.2592C92.9013 87.0737 95.2024 97.3454 95.2024 97.3454L132.736 102.957H132.753Z" fill="black"/>
<path d="M104.006 112.661L103.873 128.478C103.873 128.478 106.674 133.054 115.912 133.89C122.798 134.508 124.999 130.983 124.999 130.983L123.449 117.121L106.791 113.296L103.99 112.645L104.006 112.661Z" fill="#FCA397"/>
<path d="M104.04 111.692C104.073 112.127 104.24 112.644 104.49 113.229C107.958 121.162 120.364 124.57 124.333 124.954L123.449 117.137L104.023 111.709L104.04 111.692Z" fill="black"/>
<path d="M127.301 81.0943C127.301 81.0943 135.421 101.003 132.053 112.01C128.684 123 118.663 121.012 112.694 118.724C106.724 116.436 104.023 112.661 104.023 112.661C104.023 112.661 98.3538 114.432 94.7188 109.104C91.0838 103.776 93.5516 97.8131 96.7864 96.5104C100.038 95.2076 103.79 97.6294 103.79 97.6294L100.938 91.8338C100.938 91.8338 114.244 63.0394 127.317 81.111L127.301 81.0943Z" fill="#FCA397"/>
<path d="M103.773 97.6292C103.773 97.6292 112.177 99.6335 118.363 90.3972C124.566 81.1777 124.149 77.2861 124.149 77.2861L129.668 87.2238C129.668 87.2238 131.202 80.5263 128.651 76.1336C126.1 71.741 123.282 72.5427 123.282 72.5427L104.473 76.5679L99.0541 91.3659L103.756 97.6459L103.773 97.6292Z" fill="black"/>
<path d="M125.8 106.081C125.8 106.081 125.666 106.081 125.6 106.047C125.283 105.947 125.116 105.596 125.233 105.296C126.467 101.705 123.882 97.6794 123.849 97.6293C123.666 97.3454 123.749 96.978 124.016 96.7942C124.282 96.6105 124.666 96.694 124.849 96.9613C124.966 97.145 127.801 101.504 126.367 105.663C126.283 105.914 126.05 106.064 125.8 106.064V106.081Z" fill="black"/>
<path d="M102.673 106.799C102.506 106.799 102.339 106.732 102.222 106.598L97.0532 100.753C96.8365 100.502 96.8532 100.135 97.1033 99.9007C97.3534 99.6836 97.7202 99.7003 97.9537 99.9508L103.123 105.797C103.339 106.047 103.323 106.415 103.073 106.648C102.956 106.749 102.823 106.799 102.673 106.799Z" fill="black"/>
<path d="M97.0699 105.112C96.7698 105.112 96.5197 104.895 96.4863 104.577C96.453 104.243 96.6864 103.959 97.0032 103.909L100.722 103.458C101.038 103.425 101.339 103.659 101.389 103.976C101.422 104.31 101.188 104.594 100.872 104.644L97.1533 105.095C97.1533 105.095 97.1033 105.095 97.0866 105.095L97.0699 105.112Z" fill="black"/>
<path d="M130.135 90.0797C130.135 90.0797 130.052 90.0797 130.018 90.0797L126.55 89.3448C126.233 89.278 126.017 88.9607 126.083 88.6433C126.15 88.326 126.467 88.1089 126.784 88.1757L130.252 88.8939C130.569 88.9607 130.785 89.278 130.719 89.5954C130.652 89.8793 130.419 90.063 130.135 90.063V90.0797Z" fill="black"/>
<path d="M115.545 91.8839C115.328 91.8839 115.112 91.7503 115.011 91.5332C114.878 91.2325 115.011 90.8818 115.295 90.7315L121.114 88.0257C121.414 87.8921 121.765 88.0257 121.915 88.3097C122.048 88.6103 121.915 88.9611 121.631 89.1114L115.812 91.8171C115.812 91.8171 115.645 91.8672 115.562 91.8672L115.545 91.8839Z" fill="black"/>
<path d="M129.852 98.1635C129.585 98.1635 129.351 97.9797 129.268 97.7292L128.301 94.1383C128.251 93.9378 128.301 93.7374 128.434 93.5871L129.568 92.2843C129.785 92.0338 130.168 92.0171 130.402 92.2342C130.652 92.4513 130.669 92.8355 130.452 93.0693L129.535 94.1216L130.419 97.4119C130.502 97.7292 130.319 98.0633 130.002 98.1468C129.952 98.1468 129.902 98.1635 129.852 98.1635Z" fill="black"/>
<path d="M119.897 98.7816C119.63 98.7816 119.397 98.5979 119.314 98.3474L118.346 94.7564C118.296 94.556 118.346 94.3556 118.48 94.1886L120.047 92.485C120.264 92.2344 120.647 92.2177 120.898 92.4516C121.148 92.6687 121.164 93.0528 120.931 93.3034L119.58 94.7731L120.464 98.0467C120.547 98.3641 120.364 98.6981 120.047 98.7816C119.997 98.7816 119.947 98.7983 119.897 98.7983V98.7816Z" fill="black"/>
<path d="M121.848 111.926C121.665 111.926 121.464 111.909 121.281 111.876C118.88 111.392 117.363 107.951 117.296 107.801C117.196 107.567 117.246 107.316 117.429 107.133C117.613 106.966 117.88 106.916 118.096 107.016L124.149 109.822C124.332 109.905 124.449 110.072 124.483 110.273C124.516 110.473 124.449 110.674 124.316 110.807C123.532 111.575 122.698 111.96 121.848 111.96V111.926ZM119.28 108.87C119.864 109.705 120.647 110.523 121.498 110.69C121.915 110.774 122.315 110.69 122.732 110.473L119.263 108.87H119.28Z" fill="black"/>
<path d="M132.336 106.448C132.253 106.448 132.169 106.448 132.086 106.448C128.901 106.298 126.45 103.225 126.617 99.6169C126.7 97.8799 127.367 96.2765 128.501 95.0906C129.652 93.8881 131.152 93.2701 132.703 93.3369C134.254 93.4037 135.688 94.172 136.722 95.4915C137.739 96.7776 138.256 98.4478 138.172 100.185C138.089 101.922 137.422 103.525 136.288 104.711C135.204 105.847 133.804 106.465 132.336 106.465V106.448ZM132.47 94.4226C131.302 94.4226 130.202 94.9236 129.318 95.8422C128.368 96.8277 127.817 98.1805 127.734 99.6503C127.584 102.657 129.568 105.195 132.136 105.329C133.37 105.379 134.554 104.895 135.488 103.926C136.438 102.941 136.988 101.588 137.072 100.118C137.138 98.6482 136.722 97.2452 135.871 96.1763C135.037 95.1241 133.904 94.5061 132.67 94.456C132.603 94.456 132.536 94.456 132.47 94.456V94.4226Z" fill="white"/>
<path d="M117.93 105.796C117.829 105.796 117.713 105.796 117.613 105.796C115.845 105.713 114.228 104.945 113.044 103.642C111.86 102.339 111.26 100.652 111.343 98.8818C111.427 97.1114 112.194 95.4913 113.494 94.3055C114.795 93.1196 116.479 92.5016 118.246 92.6018C121.881 92.7856 124.699 95.8755 124.516 99.5165C124.349 103.057 121.431 105.813 117.93 105.813V105.796ZM117.93 93.771C115.062 93.771 112.677 96.0258 112.527 98.9319C112.46 100.368 112.961 101.755 113.928 102.824C114.895 103.892 116.229 104.527 117.663 104.594C120.647 104.711 123.182 102.423 123.315 99.4497C123.465 96.4767 121.148 93.9213 118.18 93.7877C118.096 93.7877 117.996 93.7877 117.913 93.7877L117.93 93.771Z" fill="white"/>
<path d="M127.25 98.7986C127.134 98.7986 127 98.7651 126.884 98.6816C126.167 98.1305 124.499 98.4478 123.966 98.6148C123.649 98.715 123.315 98.5313 123.232 98.214C123.132 97.8966 123.315 97.5626 123.632 97.4791C123.899 97.3956 126.267 96.7275 127.601 97.7463C127.867 97.9467 127.917 98.3142 127.717 98.5814C127.601 98.7317 127.417 98.8152 127.234 98.8152L127.25 98.7986Z" fill="white"/>
<path d="M111.927 99.4998C111.743 99.4998 111.56 99.4163 111.443 99.2492C109.859 97.0613 102.956 96.6938 100.438 96.7439C100.055 96.7439 99.8378 96.4934 99.8378 96.1593C99.8378 95.8253 100.088 95.5581 100.421 95.5581C101.405 95.5414 110.193 95.4746 112.41 98.5645C112.61 98.8317 112.544 99.1991 112.277 99.3996C112.177 99.4831 112.043 99.5165 111.927 99.5165V99.4998Z" fill="white"/>
<path d="M103.356 125.755C103.356 125.755 78.7281 126.357 53.283 158.625C27.838 190.893 39.2432 218.201 71.0412 231.095C102.839 243.989 135.654 246.161 135.654 246.161L140.34 201.098L112.06 193.031C112.06 193.031 114.578 142.123 103.339 125.755H103.356Z" fill="#F9E6D2"/>
<path d="M147.61 217.166L138.156 159.778L98.3205 157.857C97.0032 157.79 95.9361 158.926 96.0861 160.245L102.472 218.368L147.61 217.183V217.166Z" fill="#3B7804"/>
<path d="M100.622 157.974L107.275 218.602L123.882 218.151L143.041 217.667L152.412 217.416L151.929 214.577L148.544 194.017L144.525 169.598L143.275 161.999C143.091 160.846 142.124 159.995 140.957 159.944L100.622 158.007V157.974Z" fill="#51AB00"/>
<path d="M161.633 218.352L153.112 172.554L118.163 170.868C117.496 170.834 116.979 171.419 117.062 172.07L124.516 225.901L161.633 218.335V218.352Z" fill="#46467F"/>
<path d="M122.432 171.085L125.616 194.1L130.052 226.185L135.888 224.999L144.308 223.279L167.186 218.619L159.015 174.759C158.798 173.64 157.848 172.805 156.714 172.755L122.432 171.102V171.085Z" fill="#0067CB"/>
<path d="M154.847 202.919C154.847 202.919 172.805 202.184 169.82 207.278C166.835 212.373 152.129 209.917 152.129 209.917L143.225 208.147L154.847 202.936V202.919Z" fill="#FCA397"/>
<path d="M136.155 208.13C136.155 208.13 144.375 204.222 148.327 203.387C152.079 202.602 154.847 202.919 154.847 202.919L155.814 208.748C155.814 208.748 168.503 212.172 177.324 217.132C186.144 222.093 184.31 226.135 184.31 226.135C184.31 226.135 189.879 230.11 187.295 232.465C184.71 234.82 175.373 231.897 175.373 231.897C175.373 231.897 187.078 236.991 182.009 239.43C176.957 241.868 166.118 240.515 166.118 240.515C166.118 240.515 142.257 243.488 134.854 234.887C127.434 226.285 136.138 208.13 136.138 208.13H136.155Z" fill="#FCA397"/>
<path d="M183.793 226.135C183.793 226.135 183.643 226.135 183.576 226.102L165.468 219.905C165.101 219.788 164.918 219.387 165.035 219.02C165.151 218.653 165.551 218.469 165.918 218.586L184.027 224.782C184.394 224.899 184.577 225.3 184.46 225.667C184.36 225.951 184.093 226.135 183.81 226.135H183.793Z" fill="black"/>
<path d="M176.607 232.916C176.607 232.916 176.457 232.916 176.373 232.882L165.035 228.957C164.668 228.824 164.484 228.44 164.601 228.072C164.734 227.705 165.118 227.521 165.485 227.638L176.823 231.563C177.19 231.697 177.374 232.081 177.257 232.448C177.157 232.732 176.89 232.916 176.607 232.916Z" fill="black"/>
<path d="M89.1162 181.824L140.59 196.138L138.189 246.278C138.189 246.278 77.6776 241.501 55.9009 222.728C34.1242 203.954 66.0723 180.037 66.0723 180.037L89.1162 181.808V181.824Z" fill="#F9E6D2"/>
<path d="M87.1153 187.186C81.7628 187.186 77.0773 186.017 75.1264 184.413C74.1593 183.628 74.0593 182.877 74.1593 182.392C74.3261 181.423 75.3099 180.655 77.144 180.02C86.5984 176.78 98.5706 183.695 99.0708 183.979C99.2709 184.096 99.3876 184.313 99.371 184.547C99.3543 184.781 99.2042 184.964 99.0041 185.065C95.2357 186.568 91.0171 187.186 87.1487 187.186H87.1153ZM82.6132 180.371C80.8791 180.371 79.145 180.605 77.5275 181.156C75.61 181.808 75.3599 182.426 75.3265 182.609C75.2598 182.943 75.6433 183.311 75.8768 183.495C78.4446 185.582 88.5159 187.403 97.3033 184.413C94.8189 183.144 88.6493 180.371 82.6132 180.371Z" fill="white"/>
<path d="M66.0556 264.566H113.694C114.211 257.585 114.678 251.272 115.062 246.127C115.128 245.192 115.195 244.307 115.262 243.455C115.779 236.44 116.079 232.215 116.079 232.215C116.079 232.215 114.228 230.611 111.243 228.507C106.091 224.866 97.6035 219.788 89.5831 218.986C83.9805 218.419 78.6114 219.939 74.7263 225.433C73.7091 226.87 72.7754 228.908 71.925 231.446C71.8583 231.613 71.8083 231.78 71.7582 231.947C69.2738 239.497 67.4062 251.205 66.0556 264.566Z" fill="#F9E6D2"/>
<path d="M111.877 242.269C96.5863 241.968 74.6929 232.866 74.4761 232.782C74.176 232.649 74.0259 232.298 74.1593 231.997C74.2927 231.697 74.6429 231.546 74.943 231.68C75.1598 231.763 96.8531 240.783 111.893 241.083C112.227 241.083 112.477 241.367 112.477 241.701C112.477 242.019 112.21 242.286 111.877 242.286V242.269Z" fill="white"/>
<path d="M116.896 134.875C111.393 134.875 105.957 132.286 105.607 132.119C105.307 131.968 105.19 131.618 105.324 131.317C105.474 131.016 105.824 130.9 106.124 131.033C106.258 131.1 118.98 137.146 124.549 130.616C124.766 130.365 125.133 130.332 125.383 130.549C125.633 130.766 125.666 131.133 125.45 131.384C123.199 134.023 120.031 134.875 116.896 134.875Z" fill="white"/>
<path d="M161.766 68.2168L146.81 96.2763L182.343 72.693L161.766 68.2168Z" fill="#51AB00"/>
<path d="M180.275 76.952C211.788 76.952 237.335 59.7756 237.335 38.5873C237.335 17.3991 211.788 0.222656 180.275 0.222656C148.762 0.222656 123.215 17.3991 123.215 38.5873C123.215 59.7756 148.762 76.952 180.275 76.952Z" fill="#51AB00"/>
</g>
<defs>
<clipPath id="clip0_46_213">
<rect width="268.457" height="279.359" fill="white" transform="translate(0.40863 0.222656)"/>
</clipPath>
</defs>
</svg>
