<svg width="43" height="44" viewBox="0 0 43 44" fill="none" xmlns="http://www.w3.org/2000/svg">
<g id="Checked">
<path id="Vector" d="M18.2929 26.8066C18.4595 26.9746 18.6576 27.1079 18.8759 27.1988C19.0943 27.2898 19.3285 27.3366 19.565 27.3366C19.8015 27.3366 20.0357 27.2898 20.254 27.1988C20.4723 27.1079 20.6705 26.9746 20.8371 26.8066L28.1471 19.4966C28.4844 19.1593 28.674 18.7017 28.674 18.2246C28.674 17.7474 28.4844 17.2899 28.1471 16.9525C27.8097 16.6151 27.3521 16.4256 26.875 16.4256C26.3979 16.4256 25.9403 16.6151 25.6029 16.9525L19.565 23.0083L17.3971 20.8225C17.0597 20.4851 16.6021 20.2956 16.125 20.2956C15.6479 20.2956 15.1903 20.4851 14.8529 20.8225C14.5155 21.1599 14.326 21.6174 14.326 22.0946C14.326 22.5717 14.5155 23.0293 14.8529 23.3666L18.2929 26.8066ZM37.625 3.96289H5.37498C4.8998 3.96289 4.44408 4.15165 4.10808 4.48766C3.77208 4.82366 3.58331 5.27938 3.58331 5.75456V38.0046C3.58331 38.4797 3.77208 38.9355 4.10808 39.2715C4.44408 39.6075 4.8998 39.7962 5.37498 39.7962H37.625C38.1002 39.7962 38.5559 39.6075 38.8919 39.2715C39.2279 38.9355 39.4166 38.4797 39.4166 38.0046V5.75456C39.4166 5.27938 39.2279 4.82366 38.8919 4.48766C38.5559 4.15165 38.1002 3.96289 37.625 3.96289ZM35.8333 36.2129H7.16665V7.54622H35.8333V36.2129Z" fill="#51AB00"/>
</g>
</svg>
