<svg width="44" height="44" viewBox="0 0 44 44" fill="none" xmlns="http://www.w3.org/2000/svg">
<g id="wifi">
<g id="Layer 2">
<g id="wifi_2">
<path id="Vector" d="M21.7779 36.213C22.7674 36.213 23.5696 35.4108 23.5696 34.4213C23.5696 33.4318 22.7674 32.6296 21.7779 32.6296C20.7884 32.6296 19.9863 33.4318 19.9863 34.4213C19.9863 35.4108 20.7884 36.213 21.7779 36.213Z" fill="#51AB00"/>
<path id="Vector_2" d="M21.778 25.4628C19.4591 25.4628 17.2305 26.3619 15.5609 27.9712C15.2187 28.3014 15.0218 28.7541 15.0134 29.2295C15.005 29.7049 15.1858 30.1643 15.5161 30.5064C15.8463 30.8485 16.299 31.0454 16.7744 31.0538C17.2498 31.0622 17.7092 30.8814 18.0513 30.5512C19.0688 29.6195 20.3983 29.1027 21.778 29.1027C23.1576 29.1027 24.4871 29.6195 25.5046 30.5512C25.8467 30.8814 26.3061 31.0622 26.7815 31.0538C27.2569 31.0454 27.7096 30.8485 28.0398 30.5064C28.3701 30.1643 28.5509 29.7049 28.5425 29.2295C28.5341 28.7541 28.3372 28.3014 27.995 27.9712C26.3254 26.3619 24.0969 25.4628 21.778 25.4628ZM21.778 16.5045C19.614 16.5059 17.4725 16.9429 15.4809 17.7894C13.4894 18.6359 11.6886 19.8745 10.1859 21.4316C10.0223 21.6045 9.89449 21.808 9.80959 22.0303C9.72469 22.2527 9.68442 22.4896 9.69108 22.7275C9.69773 22.9654 9.75118 23.1997 9.84838 23.4169C9.94557 23.6342 10.0846 23.8302 10.2575 23.9937C10.6068 24.3239 11.0729 24.5019 11.5534 24.4885C11.7913 24.4818 12.0256 24.4284 12.2429 24.3312C12.4601 24.234 12.6561 24.0949 12.8196 23.922C13.9896 22.7082 15.3922 21.7427 16.9437 21.0833C18.4952 20.4238 20.1638 20.0839 21.8496 20.0839C23.5355 20.0839 25.204 20.4238 26.7555 21.0833C28.307 21.7427 29.7097 22.7082 30.8796 23.922C31.0456 24.0913 31.2434 24.226 31.4618 24.3182C31.6802 24.4105 31.9147 24.4585 32.1517 24.4595C32.5018 24.4582 32.8439 24.3543 33.1356 24.1607C33.4274 23.9671 33.656 23.6922 33.7932 23.3701C33.9304 23.048 33.9703 22.6927 33.9078 22.3482C33.8453 22.0037 33.6833 21.685 33.4417 21.4316C31.9306 19.8658 30.1182 18.6221 28.1137 17.7753C26.1091 16.9286 23.954 16.4963 21.778 16.5045Z" fill="#51AB00"/>
<path id="Vector_3" d="M39.1929 14.5875C34.5174 10.0771 28.2744 7.55664 21.7779 7.55664C15.2815 7.55664 9.03842 10.0771 4.36293 14.5875C4.06056 14.9237 3.8965 15.3618 3.90367 15.814C3.91083 16.2661 4.08868 16.6988 4.40155 17.0252C4.71441 17.3517 5.13915 17.5478 5.59056 17.5742C6.04196 17.6006 6.48666 17.4553 6.83543 17.1675C10.8445 13.2924 16.2022 11.1262 21.7779 11.1262C27.3537 11.1262 32.7114 13.2924 36.7204 17.1675C37.0526 17.4876 37.4954 17.6673 37.9567 17.6692C38.198 17.6683 38.4367 17.6186 38.6584 17.5231C38.88 17.4277 39.0801 17.2885 39.2467 17.1138C39.5733 16.771 39.751 16.3129 39.741 15.8395C39.7309 15.3662 39.5339 14.916 39.1929 14.5875Z" fill="#51AB00"/>
</g>
</g>
</g>
</svg>
