<svg width="44" height="51" viewBox="0 0 44 51" fill="none" xmlns="http://www.w3.org/2000/svg">
<g id="Group 32">
<path id="Vector" d="M32.7519 50.6478H3.36495C1.8131 50.6478 0.555908 49.3906 0.555908 47.8388V3.18868C0.555908 1.63683 1.8131 0.379639 3.36495 0.379639H32.7519C34.3037 0.379639 35.5609 1.63683 35.5609 3.18868V18.8054C35.5609 19.0804 35.3449 19.2965 35.0698 19.2965C34.7948 19.2965 34.5788 19.0804 34.5788 18.8054V3.18868C34.5788 2.16721 33.7537 1.34218 32.7322 1.34218H3.36495C2.34348 1.34218 1.51845 2.16721 1.51845 3.18868V47.8191C1.51845 48.8406 2.34348 49.6656 3.36495 49.6656H32.7519C33.7734 49.6656 34.5984 48.8406 34.5984 47.8191V36.8579C34.5984 36.5829 34.8145 36.3669 35.0895 36.3669C35.3645 36.3669 35.5806 36.5829 35.5806 36.8579V47.8191C35.5806 49.3906 34.3037 50.6478 32.7519 50.6478Z" fill="#51AB00"/>
<path id="Vector_2" d="M30.1197 7.11744H5.60436C5.32935 7.11744 5.11327 6.90136 5.11327 6.62635C5.11327 6.35133 5.32935 6.13525 5.60436 6.13525H30.1197C30.3947 6.13525 30.6108 6.35133 30.6108 6.62635C30.6108 6.90136 30.375 7.11744 30.1197 7.11744ZM30.3161 13.1873H5.8008C5.52579 13.1873 5.30971 12.9713 5.30971 12.6962C5.30971 12.4212 5.52579 12.2051 5.8008 12.2051H30.3161C30.5911 12.2051 30.8072 12.4212 30.8072 12.6962C30.8072 12.9713 30.5911 13.1873 30.3161 13.1873ZM30.1197 20.7109H5.60436C5.32935 20.7109 5.11327 20.4948 5.11327 20.2198C5.11327 19.9448 5.32935 19.7287 5.60436 19.7287H30.1197C30.3947 19.7287 30.6108 19.9448 30.6108 20.2198C30.6108 20.4948 30.375 20.7109 30.1197 20.7109ZM30.1197 28.2344H5.60436C5.32935 28.2344 5.11327 28.0183 5.11327 27.7433C5.11327 27.4683 5.32935 27.2522 5.60436 27.2522H30.1197C30.3947 27.2522 30.6108 27.4683 30.6108 27.7433C30.6108 28.0183 30.375 28.2344 30.1197 28.2344ZM28.4892 35.7579H5.58472C5.30971 35.7579 5.09363 35.5418 5.09363 35.2668C5.09363 34.9918 5.30971 34.7757 5.58472 34.7757H28.4696C28.7446 34.7757 28.9607 34.9918 28.9607 35.2668C28.9607 35.5418 28.7446 35.7579 28.4892 35.7579ZM12.5386 47.4655H7.90267C6.37047 47.4655 5.11327 46.2084 5.11327 44.6761V43.635C5.11327 42.1028 6.37047 40.8456 7.90267 40.8456H12.5386C14.0708 40.8456 15.328 42.1028 15.328 43.635V44.6761C15.328 46.2084 14.0708 47.4655 12.5386 47.4655ZM7.90267 41.8082C6.90085 41.8082 6.07581 42.6332 6.07581 43.635V44.6761C6.07581 45.678 6.90085 46.503 7.90267 46.503H12.5386C13.5404 46.503 14.3654 45.678 14.3654 44.6761V43.635C14.3654 42.6332 13.5404 41.8082 12.5386 41.8082H7.90267ZM24.6587 45.3244C24.5998 45.3244 24.5212 45.3244 24.4623 45.3047C24.1283 45.2458 23.8141 45.0494 23.6373 44.7547L23.0087 43.7725C22.9497 43.6743 22.8319 43.6547 22.7926 43.6547C22.7533 43.6547 22.6551 43.6547 22.5765 43.7725L21.9872 44.6565C21.6925 45.0887 21.1622 45.2851 20.6514 45.1476C20.1407 45.0101 19.7871 44.5779 19.7675 44.0475L19.6496 41.6707C19.6496 41.4939 19.5121 41.4546 19.4532 41.4349C19.3942 41.4153 19.2567 41.4153 19.1781 41.5724L17.7245 44.4011C17.6067 44.6369 17.312 44.7351 17.0763 44.6172C16.8405 44.4993 16.7423 44.2047 16.8602 43.969L18.3138 41.1403C18.5692 40.6492 19.0996 40.3938 19.6496 40.5117C20.1996 40.6295 20.5728 41.0814 20.6121 41.6314L20.73 44.0083C20.73 44.1654 20.8675 44.2243 20.9068 44.244C20.9657 44.2636 21.0836 44.2833 21.1818 44.1458L21.7711 43.2618C22.0068 42.9279 22.3801 42.7118 22.7926 42.7314C23.2051 42.7314 23.5783 42.9475 23.7944 43.3011L24.423 44.2833C24.4819 44.3618 24.5605 44.3815 24.5998 44.4011C24.6391 44.4011 24.7177 44.4011 24.7962 44.3422L29.0196 41.0028C29.2357 40.8456 29.5304 40.8653 29.6875 41.0813C29.8447 41.2974 29.825 41.5921 29.6089 41.7492L25.3855 45.0887C25.1891 45.2262 24.9141 45.3244 24.6587 45.3244Z" fill="#51AB00"/>
<path id="Vector_3" d="M35.0894 37.4473C35.0305 37.4473 34.9519 37.4277 34.893 37.4081L28.2142 34.4811C28.0963 34.4222 27.9981 34.3436 27.9588 34.2061C27.9195 34.0883 27.9195 33.9508 27.9588 33.8329L35.6002 16.409C36.2288 14.975 37.8985 14.3267 39.3325 14.9553L41.6897 15.9964C42.3772 16.3107 42.9273 16.8608 43.2023 17.5679C43.4773 18.2751 43.4576 19.0412 43.163 19.7484L35.5216 37.1723C35.4627 37.2902 35.3841 37.3884 35.2466 37.4277C35.2073 37.4277 35.1484 37.4473 35.0894 37.4473ZM29.0588 33.7936L34.8537 36.3473L42.2987 19.3752C42.4951 18.9234 42.5148 18.4126 42.338 17.9412C42.1612 17.4697 41.8076 17.1161 41.3361 16.9001L38.9789 15.8589C38.036 15.4464 36.9163 15.8786 36.5038 16.8215L29.0588 33.7936Z" fill="#51AB00"/>
<path id="Vector_4" d="M42.2398 17.4107C42.1809 17.4107 42.1023 17.3911 42.0434 17.3714C41.8077 17.2732 41.6898 16.9786 41.788 16.7428L42.4166 15.3088C42.5148 15.0928 42.5541 14.8767 42.5541 14.641C42.5541 13.9927 42.1613 13.3838 41.5719 13.1284C41.1594 12.9516 40.7273 12.932 40.3148 13.1087C39.9022 13.2659 39.5879 13.5802 39.4111 13.9927L38.7825 15.4267C38.6843 15.6624 38.3897 15.7803 38.1539 15.6821C37.9182 15.5839 37.8004 15.2892 37.8986 15.0535L38.5272 13.6195C38.8022 12.9712 39.3129 12.4802 39.9808 12.2248C40.6291 11.9694 41.3362 11.9891 41.9845 12.2641C42.9274 12.6766 43.556 13.6195 43.556 14.6606C43.556 15.0142 43.4774 15.3678 43.3399 15.7017L42.7113 17.1357C42.5934 17.2929 42.4166 17.4107 42.2398 17.4107ZM34.9913 30.1987C34.6574 30.1987 34.3234 30.1202 34.0091 29.9827C32.7716 29.4326 32.2019 27.979 32.7519 26.7415L35.5806 20.318C35.836 19.709 36.3271 19.2572 36.936 19.0215C37.545 18.7858 38.2129 18.8054 38.8218 19.0608C39.4308 19.3162 39.8826 19.8072 40.1183 20.4162C40.354 21.0252 40.3344 21.693 40.079 22.302L37.2503 28.7255C36.995 29.3344 36.5039 29.7862 35.8949 30.022C35.5806 30.1398 35.286 30.1987 34.9913 30.1987ZM37.8004 19.8269C37.6236 19.8269 37.4271 19.8662 37.2503 19.9251C36.8771 20.0626 36.5825 20.3573 36.4253 20.7109L33.5966 27.1343C33.2627 27.8808 33.6163 28.7648 34.3627 29.0987C34.7359 29.2558 35.1288 29.2755 35.5021 29.1183C35.8753 28.9808 36.1699 28.6862 36.3271 28.3326L39.1558 21.9091C39.3129 21.5359 39.3326 21.143 39.1754 20.7698C39.0379 20.3966 38.7433 20.1019 38.3897 19.9447C38.2129 19.8662 38.0164 19.8269 37.8004 19.8269ZM29.0196 42.1225C28.9607 42.1225 28.8821 42.1028 28.8232 42.0832C28.6661 42.0046 28.5482 41.8671 28.5285 41.6903L27.8803 33.9703C27.8607 33.7935 27.9392 33.6364 28.0767 33.5382C28.2142 33.44 28.391 33.4203 28.5482 33.4989L35.3056 36.4651C35.4628 36.524 35.561 36.6812 35.5806 36.8383C35.6003 37.0151 35.5413 37.1723 35.4038 37.2705L29.3143 42.0242C29.2161 42.0832 29.1179 42.1225 29.0196 42.1225ZM28.9214 34.6971L29.4322 40.7278L34.2056 37.0151L28.9214 34.6971Z" fill="#51AB00"/>
</g>
</svg>
