<svg width="497" height="360" viewBox="0 0 497 360" fill="none" xmlns="http://www.w3.org/2000/svg">
<g clip-path="url(#clip0_46_91)">
<path d="M366.498 19.6658H13.5376C6.21449 19.6658 0.277954 25.5692 0.277954 32.8515V346.085C0.277954 353.367 6.21449 359.27 13.5376 359.27H366.498C373.822 359.27 379.758 353.367 379.758 346.085V32.8515C379.758 25.5692 373.822 19.6658 366.498 19.6658Z" fill="#9DA9C1"/>
<path d="M371.308 65.6967V327.244C371.308 331.472 367.854 334.881 363.602 334.881H16.4871C12.2355 334.881 8.78113 331.472 8.78113 327.244V65.6967C8.78113 61.4688 12.2355 58.0601 16.4871 58.0601H363.602C365.037 58.0601 366.366 58.43 367.508 59.117C369.767 60.4382 371.308 62.8957 371.308 65.6967Z" fill="#CACEDB"/>
<path d="M292.734 39.6953C292.734 44.1874 289.067 47.8075 284.576 47.8075C280.085 47.8075 276.418 44.161 276.418 39.6953C276.418 35.2296 280.085 31.583 284.576 31.583C289.067 31.583 292.734 35.2296 292.734 39.6953Z" fill="#7D8FAD"/>
<path d="M347.419 39.6953C347.419 44.1874 343.752 47.8075 339.262 47.8075C334.771 47.8075 331.104 44.161 331.104 39.6953C331.104 35.2296 334.771 31.583 339.262 31.583C343.752 31.583 347.419 35.2296 347.419 39.6953Z" fill="#7D8FAD"/>
<path d="M320.077 39.6953C320.077 44.1874 316.41 47.8075 311.919 47.8075C307.428 47.8075 303.761 44.161 303.761 39.6953C303.761 35.2296 307.428 31.583 311.919 31.583C316.41 31.583 320.077 35.2296 320.077 39.6953Z" fill="#7D8FAD"/>
<path d="M66.8417 43.289H19.7023C17.7094 43.289 16.0885 41.6771 16.0885 39.6953C16.0885 37.7134 17.7094 36.1016 19.7023 36.1016H66.8417C68.8347 36.1016 70.4556 37.7134 70.4556 39.6953C70.4556 41.6771 68.8347 43.289 66.8417 43.289Z" fill="#7D8FAD"/>
<path d="M255.027 334.881H213.946L177.728 306.316L180.598 278.861L181.316 272.017L182.564 260.179L182.857 257.431L185.859 228.682L188.782 200.778L192.13 168.91L195.107 140.266C195.107 140.213 197.02 122.086 197.02 122.086L197.365 118.81C197.365 118.81 197.418 118.862 197.445 118.915C198.322 119.919 205.576 129.564 218.012 178.132C220.483 187.777 223.619 200.619 227.126 215.152C227.312 216.024 227.525 216.896 227.737 217.768C228.8 222.208 229.89 226.779 231.006 231.456C231.75 234.601 232.494 237.798 233.265 241.048C234.354 245.646 235.443 250.35 236.56 255.053C236.852 256.269 237.118 257.458 237.41 258.673C237.569 259.413 237.755 260.153 237.941 260.919C238.765 264.539 239.615 268.159 240.466 271.78C241.21 274.977 241.954 278.121 242.671 281.266C247.162 300.635 251.467 319.37 255.027 334.881Z" fill="#F9E6D2"/>
<path d="M323.77 168.54C323.77 168.54 349.758 166.954 362.327 155.645C374.895 144.335 362.327 121.346 362.327 121.346H334.665L312.503 146.819L323.77 168.513V168.54Z" fill="#FCA397"/>
<path d="M418.394 193.035H338.146C335.063 193.035 332.884 190.551 333.23 187.486L347.978 64.6397C348.35 61.5745 351.14 59.0906 354.222 59.0906H434.471C437.553 59.0906 439.732 61.5745 439.386 64.6397L424.639 187.486C424.267 190.551 421.477 193.035 418.394 193.035Z" fill="#0067CB"/>
<path d="M413.585 132.894C411.831 133.448 409.519 133.713 408.35 131.969C406.331 128.956 411.193 121.399 411.193 121.399C410.423 118.677 409.572 116.563 408.749 115.718C408.749 115.718 406.756 92.1209 377.685 92.7022C375.374 92.7551 373.248 92.9929 371.308 93.4157C361.875 95.4503 356.853 101.554 354.435 108.398C352.893 112.705 352.389 117.303 352.442 121.346C352.442 123.434 352.654 125.363 352.947 127.027C353.265 129.141 353.744 130.859 354.222 131.969C357.278 138.865 364.001 140.557 365.382 139.156C365.94 138.601 366.552 137.65 367.535 136.725C368.412 135.932 369.581 135.166 371.308 134.717C372.504 134.426 373.939 134.32 375.719 134.453C383 134.981 390.812 143.595 392.221 146.37C393.602 149.144 412.894 149.144 414.302 146.37C414.94 145.102 414.541 139.182 413.585 132.894ZM403.966 121.399C397.243 124.438 380.741 96.1638 398.625 102.928C398.625 102.928 410.662 118.387 403.966 121.399Z" fill="#E9EDF4"/>
<path d="M308.092 140.213C308.092 140.213 331.795 107.209 343.195 106.417C354.568 105.624 377.34 117.964 372.61 123.592C367.88 129.221 349.838 126.684 349.838 126.684C349.838 126.684 350.794 146.502 328.022 148.22C305.249 149.937 308.092 140.187 308.092 140.187V140.213Z" fill="#FCA397"/>
<path d="M246.524 334.881H83.6355C86.3193 303.304 89.4283 280.024 93.0155 272.81C95.5134 267.816 100.164 264.222 106.275 261.712C117.037 257.273 132.263 256.216 147.781 256.771C159.845 257.22 172.122 258.62 182.564 260.179C185.009 260.549 187.374 260.919 189.606 261.316C189.739 261.316 189.898 261.316 190.031 261.368C202.467 263.456 210.944 265.464 210.944 265.464C210.944 265.464 212.432 268.107 214.983 272.757C215.328 273.391 215.674 274.052 216.072 274.765C222.662 286.921 234.699 309.646 246.524 334.881Z" fill="#7C6053"/>
<path d="M96.4168 320.057C95.9651 320.057 95.5931 319.74 95.4868 319.317C95.3805 318.815 95.7259 318.313 96.2308 318.207C113.264 314.798 122.298 293.368 122.378 293.157C122.564 292.681 123.122 292.443 123.6 292.655C124.079 292.84 124.318 293.395 124.105 293.87C123.733 294.795 114.619 316.437 96.5763 320.057C96.5231 320.057 96.4434 320.057 96.3902 320.057H96.4168Z" fill="white"/>
<path d="M93.0155 272.81C93.0155 272.81 130.855 280.314 165.425 279.575C199.996 278.835 215.009 272.81 215.009 272.81C215.009 272.81 206.533 131.519 197.392 118.809C181.714 97.0094 142.44 92.9665 124.557 94.4198C96.4434 96.7187 93.8127 108.53 93.0421 129.326C92.2981 149.224 93.0421 272.81 93.0421 272.81H93.0155Z" fill="#0067CB"/>
<path d="M177.383 26.721C177.383 26.721 182.697 6.29504 169.624 2.04073C140.607 -7.41915 121.926 23.8672 121.926 23.8672C121.926 23.8672 106.78 23.3123 109.836 40.1974C113.131 58.298 128.224 61.971 128.224 61.971L177.356 26.721H177.383Z" fill="black"/>
<path d="M148.153 249.345L147.781 256.771L147.064 270.273L146.612 279.258L143.716 334.881H64.3174C69.2864 297.755 75.3183 265.068 78.4273 248.949C79.7559 242.132 80.5797 238.274 80.5797 238.274L92.8561 240.282L148.153 249.345Z" fill="#F9E6D2"/>
<path d="M133.113 67.7842L130.908 93.5479C130.908 93.5479 134.947 101.343 150.013 103.853C161.227 105.729 165.425 103.51 165.425 103.51L164.974 90.3241L164.495 77.4555L137.631 69.1583L133.113 67.7578V67.7842Z" fill="#FCA397"/>
<path d="M137.604 69.1848C137.604 69.8983 137.817 70.7438 138.135 71.748C142.839 85.1186 158.463 89.2144 164.92 90.3506L164.442 77.482L137.577 69.1848H137.604Z" fill="black"/>
<path d="M175.257 19.2164C175.257 19.2164 186.099 52.6695 179.216 70.1624C172.334 87.6552 156.125 83.1895 146.585 78.7238C137.073 74.2581 133.087 67.7842 133.087 67.7842C133.087 67.7842 123.547 69.9774 118.233 60.8346C112.918 51.6918 117.701 42.2848 123.202 40.5672C128.702 38.8496 134.575 43.2625 134.575 43.2625L130.615 33.4591C130.615 33.4591 156.045 -11.8057 175.23 19.2428L175.257 19.2164Z" fill="#FCA397"/>
<path d="M132.555 56.9766C132.343 56.9766 132.13 56.8974 131.944 56.7388L120.97 47.411C120.571 47.0675 120.518 46.4862 120.863 46.0898C121.209 45.6935 121.793 45.6406 122.192 45.9841L133.166 55.3119C133.565 55.6554 133.618 56.2367 133.273 56.6331C133.087 56.8445 132.821 56.9502 132.555 56.9502V56.9766Z" fill="black"/>
<path d="M121.926 55.9463C121.475 55.9463 121.076 55.6292 120.996 55.1535C120.917 54.6515 121.262 54.1494 121.767 54.0701L129.632 52.7489C130.164 52.6697 130.642 53.0132 130.722 53.5152C130.802 54.0173 130.456 54.5193 129.951 54.5986L122.086 55.9198C122.086 55.9198 121.979 55.9198 121.926 55.9198V55.9463Z" fill="black"/>
<path d="M153.813 33.7233C153.627 33.7233 153.441 33.6704 153.282 33.5647C152.857 33.274 152.75 32.6927 153.043 32.2699C156.311 27.6193 160.988 28.227 163.007 29.1783C163.486 29.3897 163.672 29.971 163.432 30.4202C163.22 30.8959 162.662 31.0808 162.184 30.8694C161.997 30.7902 157.719 28.8612 154.584 33.3269C154.398 33.5911 154.105 33.7233 153.813 33.7233Z" fill="black"/>
<path d="M177.728 31.7945C177.489 31.7945 177.25 31.7152 177.064 31.5302C174.486 29.0199 171.431 30.394 171.298 30.4468C170.819 30.6582 170.261 30.4468 170.049 29.9976C169.836 29.522 170.049 28.9671 170.501 28.7557C170.687 28.6764 174.858 26.721 178.419 30.1826C178.791 30.5525 178.791 31.1339 178.419 31.5038C178.233 31.6888 177.994 31.7945 177.755 31.7945H177.728Z" fill="black"/>
<path d="M171.749 56.8446C171.749 56.8446 171.51 56.8446 171.404 56.7653C170.926 56.5803 170.687 56.0254 170.873 55.5498C174.805 45.9578 169.65 41.0957 169.438 40.8843C169.066 40.5408 169.039 39.933 169.385 39.5631C169.73 39.1932 170.341 39.1403 170.713 39.5103C170.979 39.7481 177.091 45.4029 172.626 56.2632C172.467 56.6332 172.121 56.8446 171.749 56.8446Z" fill="black"/>
<path d="M176.559 44.1609C176.107 44.1609 175.709 43.8438 175.629 43.3946L174.513 37.3435C174.407 36.8414 174.752 36.3393 175.257 36.2601C175.789 36.1544 176.267 36.4979 176.347 37.0264L177.463 43.0775C177.569 43.5796 177.223 44.0817 176.719 44.1609C176.665 44.1609 176.612 44.1609 176.559 44.1609Z" fill="black"/>
<path d="M160.137 43.1041C159.686 43.1041 159.287 42.787 159.207 42.3378L158.091 36.2866C157.985 35.7846 158.33 35.2825 158.835 35.2032C159.367 35.124 159.845 35.4411 159.925 35.9695L161.041 42.0207C161.147 42.5228 160.802 43.0248 160.297 43.1041C160.244 43.1041 160.191 43.1041 160.137 43.1041Z" fill="black"/>
<path d="M177.383 26.721C177.383 26.721 175.018 21.304 168.561 20.7227C162.104 20.1413 157.932 24.3428 157.932 24.3428C157.932 24.3428 159.845 35.4145 150.571 40.4087C141.298 45.4293 134.628 43.2361 134.628 43.2361L128.437 40.4352L124.557 30.7639L144.699 12.5576L164.974 3.99609L176.028 8.85816L177.409 26.6945L177.383 26.721Z" fill="black"/>
<path d="M165.399 98.2251C165.399 98.2251 203.424 196.523 211.608 224.824L219.792 253.124L208.047 150.572L194.283 115.084C194.283 115.084 181.82 102.162 165.372 98.2251H165.399Z" fill="#F9E6D2"/>
<path d="M189.394 225.009C189.394 225.009 221.015 215.073 227.711 217.768C234.407 220.437 244.691 223.37 244.691 226.145C244.691 231.456 235.098 229.369 228.588 232.275C222.078 235.182 240.731 247.337 249.739 249.002C258.747 250.667 273.841 246.359 273.708 252.278C273.628 256.295 266.666 262.267 258.747 263.456C250.829 264.645 231.59 259.307 231.59 259.307L189.367 225.009H189.394Z" fill="#FCA397"/>
<path d="M181.502 256.665C181.502 256.665 222.104 280.79 237.064 281.504C252.025 282.217 269.881 271.753 269.748 263.799C269.616 255.846 258.189 260.576 258.189 260.576L229.837 257.986L197.286 230.531L185.275 228.576L181.502 256.665Z" fill="#FCA397"/>
<path d="M181.05 105.148C181.05 105.148 219.792 137.122 245.78 138.628C271.768 140.134 318.721 122.535 318.721 122.535L334.638 185.822C334.638 185.822 290.767 214.73 250.802 214.967L210.837 215.205C210.837 215.205 197.445 127.688 181.05 105.122V105.148Z" fill="#F9E6D2"/>
<path d="M131.227 89.6636C131.227 89.6636 43.405 98.225 43.7504 187.196C44.0958 280.605 187.72 271.832 187.72 271.832L202.547 204.53L122.697 182.73L131.253 89.6636H131.227Z" fill="#F9E6D2"/>
<path d="M256.808 261.685C245.833 261.685 236.56 256.163 236.055 255.872C235.603 255.608 235.47 255.027 235.736 254.577C236.002 254.128 236.586 253.996 237.038 254.26C237.197 254.339 251.892 263.086 265.577 258.409C266.055 258.224 266.613 258.488 266.772 258.99C266.932 259.492 266.666 260.021 266.188 260.179C263.026 261.263 259.837 261.685 256.781 261.685H256.808Z" fill="black"/>
<path d="M257.871 275.743C246.817 275.743 231.856 269.93 231.245 269.692C230.767 269.507 230.528 268.952 230.714 268.477C230.9 268.001 231.458 267.763 231.936 267.948C232.095 268.001 247.189 273.867 257.871 273.867C258.402 273.867 258.801 274.29 258.801 274.818C258.801 275.347 258.375 275.743 257.871 275.743Z" fill="black"/>
<path d="M122.697 183.681C122.697 183.681 122.591 183.681 122.511 183.681C121.315 183.47 93.1484 178.105 88.6311 171.235C87.9934 170.284 87.8074 169.306 88.02 168.355C88.2325 167.377 88.8437 166.69 89.7737 166.32C96.1777 163.836 120.438 180.114 123.202 181.99C123.574 182.228 123.707 182.703 123.547 183.126C123.388 183.47 123.042 183.707 122.67 183.707L122.697 183.681ZM91.5541 167.879C91.1289 167.879 90.7835 167.932 90.4912 168.038C90.1458 168.17 89.9597 168.381 89.88 168.751C89.7737 169.2 89.88 169.676 90.2255 170.205C93.0687 174.512 108.507 178.713 118.1 180.854C108.773 174.855 96.3105 167.906 91.5541 167.906V167.879Z" fill="#FFBF69"/>
<path d="M257.977 163.44C255.798 163.414 254.124 162.594 252.875 161.009C248.039 154.931 251.467 139.103 251.6 138.416C251.679 138.046 251.972 137.756 252.344 137.703C252.716 137.624 253.088 137.782 253.3 138.099C254.496 139.896 264.912 155.909 261.856 161.458C261.352 162.357 260.289 163.414 257.977 163.414V163.44ZM253.008 141.138C252.264 145.683 251.068 155.724 254.336 159.846C255.24 160.983 256.383 161.538 257.871 161.564C259.651 161.696 260.05 160.824 260.182 160.56C261.883 157.468 257.1 147.744 252.981 141.138H253.008Z" fill="#FFBF69"/>
<path d="M156.47 106.364C142.812 106.364 130.855 94.8163 130.243 94.2085C129.871 93.8386 129.871 93.2573 130.243 92.8873C130.616 92.5174 131.2 92.5174 131.572 92.8873C131.758 93.0459 149.136 109.852 165.027 102.664C165.478 102.453 166.063 102.664 166.276 103.14C166.488 103.616 166.276 104.17 165.797 104.382C162.662 105.809 159.526 106.364 156.47 106.364Z" fill="#FFBF69"/>
<path d="M119.933 122.192C119.375 122.192 118.844 121.796 118.711 121.241C115.974 109.72 116.612 100.683 120.598 94.42C124.318 88.6067 129.553 87.4176 129.792 87.3647C130.483 87.2326 131.147 87.6554 131.28 88.316C131.413 89.003 130.987 89.6636 130.323 89.7958C130.137 89.8222 125.832 90.8527 122.697 95.7941C119.11 101.475 118.605 109.852 121.182 120.659C121.342 121.32 120.917 122.007 120.252 122.165C120.146 122.165 120.066 122.192 119.96 122.192H119.933Z" fill="#46467F"/>
<path d="M182.246 156.464C181.528 156.464 180.97 155.883 180.997 155.196C180.997 154.747 181.714 109.508 165.425 97.7494C164.867 97.353 164.734 96.5603 165.16 96.0054C165.558 95.4505 166.355 95.3184 166.913 95.7411C184.238 108.266 183.548 153.346 183.521 155.275C183.521 155.962 182.936 156.491 182.272 156.491L182.246 156.464Z" fill="#46467F"/>
<path d="M122.378 163.387C121.9 163.387 121.421 163.097 121.235 162.647C120.704 161.432 108.295 132.867 118.392 121.98C120.04 120.184 122.112 119.391 124.53 119.602C135.611 120.58 150.943 144.098 151.581 145.075C151.953 145.657 151.794 146.423 151.209 146.793C150.624 147.163 149.854 147.004 149.482 146.423C145.257 139.896 132.502 122.8 124.318 122.086C122.723 121.928 121.368 122.456 120.252 123.672C111.244 133.343 123.414 161.353 123.547 161.617C123.813 162.251 123.547 162.991 122.909 163.255C122.75 163.334 122.564 163.361 122.405 163.361L122.378 163.387Z" fill="#46467F"/>
<path d="M154.584 148.272H144.885C144.194 148.272 143.636 147.718 143.636 147.031C143.636 146.343 144.194 145.789 144.885 145.789H154.584C155.275 145.789 155.833 146.343 155.833 147.031C155.833 147.718 155.275 148.272 154.584 148.272Z" fill="#46467F"/>
<path d="M120.943 167.51C120.731 167.51 120.491 167.457 120.279 167.325C119.694 166.955 119.508 166.188 119.854 165.607L124.929 157.389C125.301 156.808 126.072 156.623 126.656 156.966C127.241 157.336 127.427 158.102 127.081 158.684L122.006 166.902C121.767 167.298 121.342 167.51 120.943 167.51Z" fill="#46467F"/>
<path d="M182.246 165.131C186.399 165.131 189.766 161.783 189.766 157.653C189.766 153.523 186.399 150.175 182.246 150.175C178.092 150.175 174.726 153.523 174.726 157.653C174.726 161.783 178.092 165.131 182.246 165.131Z" fill="#46467F"/>
<path d="M182.246 160.56C183.86 160.56 185.169 159.259 185.169 157.653C185.169 156.048 183.86 154.747 182.246 154.747C180.631 154.747 179.323 156.048 179.323 157.653C179.323 159.259 180.631 160.56 182.246 160.56Z" fill="white"/>
<path d="M165.771 68.9469C165.106 68.9469 164.442 68.7883 163.751 68.392C160.563 66.5423 158.888 60.5175 158.835 60.2797C158.729 59.9362 158.862 59.5663 159.154 59.3284C159.446 59.0906 159.818 59.0642 160.164 59.2227L170.633 64.6133C170.873 64.7454 171.059 64.9568 171.112 65.2475C171.165 65.5117 171.112 65.8024 170.926 66.0138C170.819 66.1723 168.534 68.9997 165.797 68.9997L165.771 68.9469ZM161.333 61.8916C162.077 63.7149 163.246 65.9609 164.681 66.8065C166.116 67.6521 167.737 66.5423 168.667 65.6703L161.333 61.8916Z" fill="black"/>
<path d="M496.278 216.949V309.513C496.278 314.613 492.133 318.735 487.031 318.735H342.929C337.827 318.735 333.682 314.613 333.682 309.513V216.949C333.682 211.849 337.827 207.727 342.929 207.727H487.031C492.133 207.727 496.278 211.849 496.278 216.949Z" fill="#51AB00"/>
<path d="M413.266 318.735H371.308C371.521 309.46 375.294 288.321 383.531 274.818C394.32 257.088 407.633 251.248 407.633 251.248L413.292 318.735H413.266Z" fill="#FFBF69"/>
<path d="M484.4 216.13C484.4 217.689 483.151 218.931 481.584 218.931C480.016 218.931 478.767 217.689 478.767 216.13C478.767 214.571 480.016 213.329 481.584 213.329C483.151 213.329 484.4 214.571 484.4 216.13Z" fill="#D0D5E2"/>
<path d="M476.109 216.13C476.109 217.689 474.861 218.931 473.293 218.931C471.725 218.931 470.476 217.689 470.476 216.13C470.476 214.571 471.725 213.329 473.293 213.329C474.861 213.329 476.109 214.571 476.109 216.13Z" fill="#D0D5E2"/>
<path d="M467.473 216.13C467.473 217.689 466.225 218.931 464.657 218.931C463.089 218.931 461.84 217.689 461.84 216.13C461.84 214.571 463.089 213.329 464.657 213.329C466.225 213.329 467.473 214.571 467.473 216.13Z" fill="#D0D5E2"/>
<path d="M435.799 224.374C435.799 229.131 431.92 232.989 427.137 232.989C422.354 232.989 418.474 229.131 418.474 224.374C418.474 219.618 422.354 215.76 427.137 215.76C431.92 215.76 435.799 219.618 435.799 224.374Z" fill="black"/>
<path d="M431.255 240.731C434.645 240.731 437.394 237.998 437.394 234.627C437.394 231.256 434.645 228.523 431.255 228.523C427.865 228.523 425.117 231.256 425.117 234.627C425.117 237.998 427.865 240.731 431.255 240.731Z" fill="black"/>
<path d="M436.756 244.853C436.756 247.865 434.285 250.323 431.255 250.323C428.226 250.323 425.755 247.865 425.755 244.853C425.755 241.841 428.226 239.383 431.255 239.383C434.285 239.383 436.756 241.841 436.756 244.853Z" fill="black"/>
<path d="M430.06 283.723L427.535 318.736H397.243C393.522 309.276 396.924 290.197 396.924 290.197C396.924 290.197 401.787 251.644 408.669 250.799C415.578 249.953 421.636 250.984 421.636 250.984L430.06 283.723Z" fill="#FFBF69"/>
<path d="M423.868 310.2C423.868 310.2 407.181 312.949 403.886 315.961C400.591 318.973 408.589 330.574 410.635 332.45C412.681 334.326 427.323 324.787 427.323 324.787L429.448 316.463L423.868 310.2Z" fill="#F2887C"/>
<path d="M403.886 315.961C403.886 315.961 396.924 325.87 398.066 329.966C399.209 334.062 407.632 321.404 407.632 321.404L403.912 315.961H403.886Z" fill="#F2887C"/>
<path d="M416.162 329.702C416.162 329.702 424.798 328.486 423.098 331.604C421.397 334.722 412.15 334.167 410.635 332.45C409.121 330.732 413.93 326.029 413.93 326.029L416.162 329.702Z" fill="#F2887C"/>
<path d="M417.278 330.626C417.145 330.626 417.013 330.547 416.959 330.415C416.88 330.23 416.959 330.045 417.172 329.966L419.059 329.252L417.597 328.169C417.438 328.063 417.411 327.852 417.517 327.693C417.624 327.535 417.863 327.508 417.996 327.614L419.962 329.067C419.962 329.067 420.122 329.279 420.095 329.384C420.095 329.517 419.989 329.622 419.882 329.649L417.411 330.6C417.411 330.6 417.331 330.6 417.278 330.6V330.626Z" fill="black"/>
<path d="M404.896 324.602C404.603 324.496 404.497 324.311 404.577 324.126C404.736 323.73 406.144 320.11 406.995 319.396C407.128 319.264 407.367 319.29 407.473 319.449C407.606 319.581 407.579 319.819 407.446 319.925C406.915 320.374 405.799 322.884 405.214 324.39C405.161 324.522 405.028 324.602 404.896 324.602Z" fill="black"/>
<path d="M407.526 328.777C407.526 328.777 407.42 328.777 407.367 328.75C407.207 328.671 407.128 328.46 407.207 328.275L410.21 322.382C410.29 322.223 410.502 322.144 410.662 322.223C410.821 322.303 410.901 322.514 410.821 322.699L407.818 328.592C407.818 328.592 407.632 328.777 407.5 328.777H407.526Z" fill="black"/>
<path d="M404.391 236.847C404.391 236.847 401.229 233.279 402.238 227.809C402.929 224.11 404.603 222.921 404.603 222.921C404.603 222.921 402.132 217.821 409.679 218.244C417.199 218.667 421.583 222.393 421.583 222.393C421.583 222.393 425.037 220.754 426.525 224.771C428.013 228.787 426.393 234.653 426.393 234.653L404.417 236.847H404.391Z" fill="black"/>
<path d="M420.839 243.241L420.467 252.384C420.467 252.384 418.713 254.947 413.319 255.185C409.307 255.344 408.111 253.256 408.111 253.256L409.386 245.302L419.165 243.558L420.812 243.268L420.839 243.241Z" fill="#F2887C"/>
<path d="M420.866 242.687C420.839 242.924 420.733 243.215 420.573 243.559C418.341 248.051 411.034 249.663 408.695 249.768L409.413 245.276L420.866 242.687Z" fill="black"/>
<path d="M408.19 224.374C408.19 224.374 402.929 235.658 404.577 242.079C406.224 248.526 412.123 247.654 415.657 246.491C419.191 245.329 420.866 243.241 420.866 243.241C420.866 243.241 424.107 244.43 426.366 241.444C428.625 238.458 427.349 234.944 425.516 234.125C423.656 233.279 421.397 234.574 421.397 234.574L423.23 231.298C423.23 231.298 416.295 214.307 408.19 224.374Z" fill="#F2887C"/>
<path d="M421.397 234.574C421.397 234.574 416.455 235.499 413.106 230.003C409.758 224.507 410.104 222.26 410.104 222.26L406.623 227.836C406.623 227.836 405.905 223.925 407.526 221.468C409.121 219.01 410.742 219.539 410.742 219.539L421.556 222.393L424.293 231.086L421.37 234.574H421.397Z" fill="black"/>
<path d="M408.377 238.829C408.217 238.829 408.084 238.723 408.031 238.591C407.314 236.16 409.094 233.702 409.147 233.597C409.253 233.438 409.466 233.412 409.625 233.517C409.785 233.623 409.811 233.834 409.705 233.993C409.705 233.993 408.058 236.265 408.695 238.379C408.749 238.564 408.642 238.749 408.456 238.802C408.43 238.802 408.403 238.802 408.35 238.802L408.377 238.829Z" fill="black"/>
<path d="M421.796 239.912C421.796 239.912 421.61 239.885 421.556 239.806C421.424 239.674 421.424 239.463 421.556 239.304L424.719 236.08C424.851 235.948 425.064 235.948 425.197 236.08C425.33 236.212 425.33 236.424 425.197 236.556L422.035 239.78C422.035 239.78 421.875 239.885 421.796 239.885V239.912Z" fill="black"/>
<path d="M425.117 239.066L422.912 238.696C422.726 238.67 422.593 238.485 422.619 238.3C422.646 238.115 422.832 237.983 423.018 238.009L425.17 238.379C425.356 238.406 425.489 238.591 425.463 238.776C425.436 238.934 425.277 239.066 425.117 239.066Z" fill="black"/>
<path d="M406.304 229.474C406.144 229.474 405.985 229.342 405.958 229.184C405.932 228.999 406.065 228.814 406.251 228.787L408.297 228.47C408.483 228.417 408.669 228.576 408.695 228.761C408.722 228.946 408.589 229.131 408.403 229.157L406.357 229.474C406.357 229.474 406.33 229.474 406.304 229.474Z" fill="black"/>
<path d="M414.727 230.928C414.727 230.928 414.621 230.928 414.568 230.875L411.246 229.157C411.087 229.078 411.007 228.867 411.087 228.682C411.167 228.523 411.379 228.444 411.565 228.523L414.887 230.241C415.046 230.32 415.126 230.531 415.046 230.716C414.993 230.822 414.86 230.901 414.727 230.901V230.928Z" fill="black"/>
<path d="M406.224 234.151C405.932 234.072 405.826 233.887 405.905 233.702L406.516 231.826L406.012 231.192C405.905 231.033 405.905 230.822 406.065 230.716C406.224 230.611 406.437 230.611 406.543 230.769L407.181 231.562C407.181 231.562 407.287 231.773 407.234 231.879L406.57 233.914C406.516 234.072 406.384 234.151 406.251 234.151H406.224Z" fill="black"/>
<path d="M412.017 234.786C411.725 234.706 411.618 234.521 411.698 234.336L412.309 232.46L411.565 231.588C411.432 231.43 411.459 231.218 411.618 231.113C411.778 230.981 411.99 231.007 412.097 231.166L412.947 232.196C412.947 232.196 413.053 232.407 413 232.513L412.336 234.548C412.283 234.706 412.15 234.786 412.017 234.786Z" fill="black"/>
<path d="M409.998 241.867C409.705 241.867 409.439 241.814 409.174 241.656C409.014 241.55 408.961 241.339 409.041 241.18C409.147 241.022 409.333 240.942 409.519 241.048C410.449 241.55 412.123 240.229 412.708 239.648C412.841 239.516 413.053 239.516 413.186 239.648C413.319 239.78 413.319 239.991 413.186 240.15C412.974 240.361 411.406 241.867 409.998 241.867Z" fill="black"/>
<path d="M421.636 250.931C421.636 250.931 464.285 258.99 464.285 298.495C464.285 324.549 428.598 332.344 428.598 332.344L417.703 305.497L422.965 293.263L421.636 250.931Z" fill="#FFBF69"/>
<path d="M422.805 302.96C422.805 302.96 422.593 302.907 422.54 302.828C422.433 302.669 422.46 302.458 422.593 302.352C423.071 302.009 434.072 293.685 438.483 292.126C438.669 292.073 438.855 292.153 438.935 292.338C438.988 292.523 438.908 292.708 438.722 292.787C434.417 294.293 423.124 302.828 423.018 302.907C422.965 302.96 422.885 302.987 422.805 302.987V302.96Z" fill="white"/>
<path d="M432.956 295.641C432.69 295.561 432.61 295.429 432.61 295.297C432.61 294.61 432.531 288.665 434.417 287.423C434.736 287.211 435.268 287.053 435.985 287.396C436.57 287.687 436.942 288.136 437.048 288.717C437.473 291.122 433.381 295.35 433.195 295.535C433.115 295.614 433.036 295.641 432.956 295.641ZM435.215 287.898C435.029 287.898 434.896 287.951 434.816 288.03C433.673 288.77 433.355 292.338 433.328 294.425C434.63 292.972 436.649 290.329 436.41 288.85C436.357 288.48 436.118 288.215 435.746 288.03C435.533 287.925 435.374 287.898 435.241 287.898H435.215Z" fill="white"/>
<path d="M412.522 255.555C409.094 255.555 407.872 253.52 407.818 253.415C407.712 253.256 407.792 253.045 407.951 252.939C408.111 252.833 408.323 252.913 408.43 253.071C408.483 253.151 409.678 255.159 413.292 254.815C416.694 254.498 420.254 252.12 420.281 252.094C420.44 251.988 420.653 252.041 420.759 252.173C420.865 252.331 420.839 252.543 420.679 252.648C420.52 252.754 416.959 255.159 413.372 255.502C413.08 255.529 412.787 255.529 412.522 255.529V255.555Z" fill="white"/>
<path d="M399.342 315.327C399.156 315.327 398.996 315.168 398.996 314.983L398.412 295.667L395.197 287.661C391.955 279.575 395.17 270.458 395.197 270.379C395.276 270.194 395.462 270.115 395.648 270.168C395.834 270.221 395.914 270.432 395.861 270.617C395.834 270.696 392.699 279.575 395.861 287.423L399.103 295.482L399.714 314.983C399.714 315.168 399.581 315.327 399.368 315.327H399.342Z" fill="white"/>
</g>
<defs>
<clipPath id="clip0_46_91">
<rect width="496" height="359" fill="white" transform="translate(0.277954 0.270264)"/>
</clipPath>
</defs>
</svg>
