<svg width="61" height="61" viewBox="0 0 61 61" fill="none" xmlns="http://www.w3.org/2000/svg">
<g id="Health">
<path id="Vector" d="M53.8631 7.47462C50.5969 3.90274 46.2412 1.93774 41.5969 1.93774C37.5825 1.93774 33.7819 3.40774 30.7162 6.11337C27.6506 3.40774 23.85 1.93774 19.8356 1.93774C15.1912 1.93774 10.8356 3.90274 7.56937 7.47462C0.931873 14.7309 0.931873 26.5359 7.56937 33.7921L29.3306 57.5802C29.6869 57.9665 30.1894 58.1877 30.7162 58.1877C31.2431 58.1877 31.7456 57.9665 32.1019 57.5784L53.8631 33.7902C60.5006 26.5359 60.5006 14.7309 53.8631 7.47462ZM51.0919 31.2609L30.7162 53.534L10.3387 31.2609C4.97812 25.4015 4.97812 15.8652 10.3387 10.0059C12.8869 7.21962 16.2581 5.68774 19.8356 5.68774C23.4131 5.68774 26.7844 7.21962 29.3306 10.004C30.0412 10.7802 31.3894 10.7802 32.1019 10.004C34.6481 7.21962 38.0194 5.68774 41.5969 5.68774C45.1744 5.68774 48.5475 7.21962 51.0937 10.004C56.4544 15.8652 56.4544 25.4015 51.0919 31.2609Z" fill="white"/>
<path id="Vector_2" d="M45.7162 24.4377H41.0287L35.9662 17.6877C35.5762 17.1684 34.9519 16.889 34.2975 16.9452C33.6506 17.0034 33.0806 17.3934 32.7881 17.9746L26.6456 30.2615L22.8412 25.1877C22.4869 24.7152 21.9319 24.4377 21.3412 24.4377H15.7162C14.6812 24.4377 13.8412 25.2777 13.8412 26.3127C13.8412 27.3477 14.6812 28.1877 15.7162 28.1877H20.4037L25.4662 34.9377C25.8225 35.4121 26.3794 35.6877 26.9662 35.6877C27.0225 35.6877 27.0787 35.6859 27.135 35.6802C27.7819 35.6221 28.3519 35.2321 28.6444 34.6509L34.7869 22.364L38.5912 27.4377C38.9437 27.9102 39.5006 28.1877 40.0912 28.1877H45.7162C46.7512 28.1877 47.5912 27.3477 47.5912 26.3127C47.5912 25.2777 46.7512 24.4377 45.7162 24.4377Z" fill="white"/>
</g>
</svg>
