<svg width="56" height="44" viewBox="0 0 56 44" fill="none" xmlns="http://www.w3.org/2000/svg">
<path id="Vector" d="M52.7918 17.3514H45.9187C45.5549 17.353 45.1951 17.4266 44.86 17.5682C44.525 17.7098 44.2213 17.9164 43.9667 18.1762L40.5576 21.7228L32.8597 12.9526C32.6025 12.678 32.2917 12.459 31.9465 12.3093C31.6013 12.1596 31.229 12.0823 30.8527 12.0823C30.4765 12.0823 30.1042 12.1596 29.759 12.3093C29.4138 12.459 29.103 12.678 28.8458 12.9526L24.1721 17.6264H19.8007C19.0716 17.6264 18.3723 17.916 17.8567 18.4316C17.3411 18.9472 17.0515 19.6465 17.0515 20.3756C17.0515 21.1048 17.3411 21.8041 17.8567 22.3196C18.3723 22.8352 19.0716 23.1249 19.8007 23.1249H25.2992C25.6611 23.127 26.0197 23.0576 26.3547 22.9208C26.6897 22.784 26.9943 22.5824 27.2512 22.3276L30.7978 18.6436L38.4957 27.4137C38.744 27.6968 39.0479 27.9258 39.3884 28.0866C39.7289 28.2474 40.0988 28.3365 40.4751 28.3485C40.837 28.3506 41.1956 28.2812 41.5306 28.1444C41.8656 28.0076 42.1702 27.806 42.4271 27.5512L47.1009 22.85H52.7918C53.521 22.85 54.2202 22.5603 54.7358 22.0447C55.2514 21.5291 55.5411 20.8298 55.5411 20.1007C55.5411 19.3716 55.2514 18.6723 54.7358 18.1567C54.2202 17.6411 53.521 17.3514 52.7918 17.3514ZM32.4748 31.9225L27.2512 37.1461C26.9956 37.4038 26.6916 37.6083 26.3566 37.7479C26.0215 37.8875 25.6622 37.9593 25.2992 37.9593C24.9363 37.9593 24.577 37.8875 24.2419 37.7479C23.9069 37.6083 23.6029 37.4038 23.3473 37.1461L9.02365 22.8225C8.08098 21.8804 7.33319 20.7617 6.82299 19.5305C6.31279 18.2993 6.05019 16.9796 6.05019 15.6469C6.05019 14.3142 6.31279 12.9945 6.82299 11.7633C7.33319 10.5321 8.08098 9.41345 9.02365 8.47134C10.9252 6.57593 13.5006 5.51161 16.1855 5.51161C18.8703 5.51161 21.4457 6.57593 23.3473 8.47134C23.6029 8.72903 23.9069 8.93356 24.2419 9.07313C24.577 9.21271 24.9363 9.28457 25.2992 9.28457C25.6622 9.28457 26.0215 9.21271 26.3566 9.07313C26.6916 8.93356 26.9956 8.72903 27.2512 8.47134C29.183 6.63407 31.7471 5.6095 34.413 5.6095C37.079 5.6095 39.643 6.63407 41.5748 8.47134C42.1874 9.09197 42.7228 9.78429 43.1694 10.5333C43.5697 11.0837 44.16 11.4661 44.826 11.6065C45.4919 11.7468 46.1863 11.6351 46.7747 11.293C47.3631 10.9509 47.8037 10.4028 48.0112 9.75457C48.2187 9.10637 48.1784 8.40424 47.8981 7.78403C47.2186 6.6556 46.4064 5.61261 45.4788 4.67737C42.8697 2.03768 39.4058 0.41356 35.7079 0.0961656C32.01 -0.221228 28.32 0.788853 25.2992 2.94534C22.9647 1.2636 20.211 0.259526 17.3419 0.0439152C14.4728 -0.171696 11.5999 0.409542 9.04031 1.72349C6.48068 3.03743 4.33381 5.03299 2.83664 7.48995C1.33947 9.94691 0.550205 12.7697 0.555939 15.6469C0.555116 17.6926 0.960538 19.7181 1.74868 21.6059C2.53683 23.4936 3.69201 25.2061 5.1472 26.6439L19.4708 40.9676C21.0173 42.5121 23.1136 43.3796 25.2992 43.3796C27.4849 43.3796 29.5812 42.5121 31.1277 40.9676L36.2963 35.799C36.8083 35.2838 37.0957 34.587 37.0957 33.8607C37.0957 33.1344 36.8083 32.4376 36.2963 31.9225C35.7836 31.427 35.0985 31.15 34.3855 31.15C33.6726 31.15 32.9875 31.427 32.4748 31.9225Z" fill="#51AB00"/>
</svg>
