<svg width="62" height="62" viewBox="0 0 62 62" fill="none" xmlns="http://www.w3.org/2000/svg">
<g id="Group 5">
<g id="Group">
<path id="Vector" d="M48.6737 61.0012V8.7238C48.6737 4.44208 45.1956 1 40.869 1H21.1323C16.8056 1 13.3275 4.44208 13.3275 8.7238V61.0012H48.6737ZM48.6737 61.0012H61.0012V26.9474C61.0012 22.6657 57.5232 19.2237 53.1965 19.2237H52.2675" stroke="#51AB00" stroke-width="1.99941" stroke-linecap="round" stroke-linejoin="round"/>
<path id="Vector_2" d="M9.57094 19.2236H8.80473C4.47805 19.2236 0.999986 22.6656 0.999986 26.9473V61.0011H13.3275M55.3618 33.5166H48.6737M55.3618 41.2192H48.6737M41.8894 24.8132H35.2013M41.8894 31.0005H35.2013M26.7999 24.8132H20.1118M26.7999 31.0005H20.1118M13.3275 33.5166H6.63938M13.3275 41.2192H6.63938M41.8894 38.0717H35.2013M26.7999 38.0717H20.1118M33.5339 45.0711C35.488 45.0711 37.0613 46.6443 37.0613 48.5985V61.0011H24.9399V48.5985C24.9399 46.6443 26.5132 45.0711 28.4673 45.0711H33.5339Z" stroke="#51AB00" stroke-width="1.99941" stroke-linecap="round" stroke-linejoin="round"/>
<path id="Vector_3" d="M31.654 6.27148C32.8674 6.27148 33.8435 7.24766 33.8435 8.46107V10.2638H35.6462C36.8597 10.2638 37.8358 11.2398 37.8358 12.4532V13.76C37.8358 14.9734 36.8597 15.9494 35.6462 15.9494H33.8435V17.7522C33.8435 18.9656 32.8674 19.9417 31.654 19.9417H30.3473C29.1339 19.9417 28.1578 18.9656 28.1578 17.7522V15.9494H26.3551C25.1416 15.9494 24.1655 14.9734 24.1655 13.76V12.4532C24.1655 11.2398 25.1416 10.2638 26.3551 10.2638H28.1578V8.46107C28.1578 7.24766 29.1339 6.27148 30.3473 6.27148H31.654Z" stroke="#51AB00" stroke-width="1.99941"/>
</g>
</g>
</svg>
