<?xml version="1.0" encoding="utf-8"?>
<!-- Generator: Adobe Illustrator 27.3.1, SVG Export Plug-In . SVG Version: 6.00 Build 0)  -->
<svg version="1.1" id="Camada_1" xmlns="http://www.w3.org/2000/svg" xmlns:xlink="http://www.w3.org/1999/xlink" x="0px" y="0px"
	 viewBox="0 0 1500 512.7" style="enable-background:new 0 0 1500 512.7;" xml:space="preserve">
<style type="text/css">
	.st0{fill:#3864AD;}
	.st1{fill:#69AB31;}
</style>
<path class="st0" d="M1153.1,447.7c-6,0-12-0.9-17.8-2.8c-4.9-1.5-9.5-4-13.4-7.4l4.3-9.1c3.5,2.9,7.5,5.2,11.9,6.7
	c4.8,1.8,9.9,2.7,15,2.7c3.9,0.1,7.8-0.4,11.5-1.6c2.6-0.8,4.8-2.4,6.5-4.5c1.4-1.9,2.1-4.1,2.1-6.5c0.1-2.5-0.9-5-2.7-6.7
	c-2.1-1.8-4.5-3.2-7.1-4.1c-3.1-1.1-6.3-2-9.6-2.7c-3.5-0.8-7-1.7-10.5-2.7c-3.4-1-6.6-2.3-9.7-4c-2.8-1.6-5.2-3.8-7-6.6
	c-1.8-2.7-2.7-6.3-2.7-10.6c0-4.1,1.1-8.1,3.3-11.6c2.5-3.8,6.1-6.7,10.2-8.5c4.6-2.1,10.5-3.2,17.6-3.2c4.7,0,9.5,0.6,14.1,1.9
	c4.3,1.1,8.4,2.9,12.1,5.3l-3.8,9.3c-3.4-2.3-7.1-3.9-11-5c-3.7-1-7.5-1.5-11.3-1.6c-3.8-0.1-7.7,0.5-11.3,1.7
	c-2.6,0.9-4.8,2.5-6.4,4.7c-1.3,1.9-2,4.2-2,6.5c-0.1,2.6,0.9,5.1,2.7,6.9c2.1,1.8,4.5,3.2,7.1,4.1c3.1,1.1,6.3,2,9.6,2.7
	c3.5,0.8,7,1.7,10.5,2.7c3.4,1,6.6,2.3,9.7,4c2.8,1.6,5.2,3.8,7,6.5c1.9,3.1,2.8,6.8,2.7,10.5c0,4.1-1.2,8-3.4,11.5
	c-2.6,3.8-6.2,6.7-10.4,8.5C1166.2,446.6,1160.2,447.7,1153.1,447.7z"/>
<path class="st0" d="M1214.5,447.5c-4.1,0.1-8.2-0.7-12-2.3c-3.2-1.3-6-3.6-8-6.5c-1.9-2.8-2.8-6-2.8-9.3c0-3.2,0.8-6.3,2.4-9.1
	c1.8-2.9,4.6-5.2,7.8-6.5c3.6-1.6,8.5-2.5,14.6-2.5h19.6v8h-19.1c-5.6,0-9.3,0.9-11.3,2.8c-1.9,1.7-2.9,4.2-2.9,6.7
	c-0.1,2.9,1.3,5.6,3.6,7.3c2.4,1.8,5.7,2.7,10,2.7c3.9,0.1,7.7-0.9,11-2.8c3.1-1.9,5.5-4.7,6.8-8.1l2.2,7.7
	c-1.5,3.7-4.3,6.8-7.8,8.7C1224.8,446.4,1220.1,447.4,1214.5,447.5z M1234.7,446.8v-13l-0.6-2.4v-22.2c0-4.7-1.4-8.4-4.1-11
	s-6.9-3.9-12.4-3.9c-3.6,0-7.3,0.6-10.7,1.8c-3.2,1.1-6.2,2.7-8.8,4.8l-4.7-8.4c3.4-2.7,7.3-4.7,11.4-5.9c4.5-1.4,9.3-2,14-2
	c8.4,0,14.9,2.1,19.5,6.2c4.6,4.1,6.9,10.4,6.9,18.8v37.2L1234.7,446.8z"/>
<path class="st0" d="M1288.4,447.5c-4.8,0.1-9.5-0.9-13.9-2.9c-4-1.9-7.2-5-9.3-8.9c-2.2-4-3.3-9-3.3-15v-35.4h11.1v34.2
	c0,6,1.5,10.6,4.4,13.6c2.9,3,7,4.5,12.3,4.5c3.5,0.1,7-0.7,10.1-2.4c2.9-1.6,5.2-4,6.6-7c1.6-3.5,2.4-7.3,2.3-11.1v-31.8h11.2v61.6
	h-10.6v-16.6l1.7,4.4c-2,4-5.1,7.4-9.1,9.5C1297.8,446.4,1293.1,447.5,1288.4,447.5z M1282.2,376.2l15.8-15.1h14.2l-19.5,15.1
	H1282.2z"/>
<path class="st0" d="M1363.1,447.5c-5.6,0.1-11.1-1.3-16-4c-4.6-2.6-8.5-6.4-11.1-11c-5.4-10.3-5.4-22.6,0-32.9
	c2.6-4.6,6.5-8.4,11.1-11c4.9-2.7,10.4-4.1,16-4c4.9-0.1,9.8,1.1,14.1,3.5c4.3,2.4,7.7,6.1,10,10.5c2.5,4.7,3.8,10.5,3.8,17.4
	c0,7-1.2,12.8-3.7,17.4c-2.2,4.4-5.7,8.1-9.9,10.5C1373,446.3,1368.1,447.5,1363.1,447.5z M1364,437.7c3.7,0.1,7.3-0.9,10.5-2.7
	c3.1-1.8,5.7-4.4,7.4-7.6c1.9-3.5,2.8-7.5,2.7-11.5c0.1-4-0.8-7.9-2.7-11.4c-1.7-3.1-4.3-5.7-7.4-7.5c-6.6-3.6-14.5-3.6-21.1,0
	c-3.1,1.8-5.7,4.4-7.4,7.5c-1.9,3.5-2.9,7.4-2.8,11.4c-0.1,4,0.9,7.9,2.8,11.5c1.7,3.2,4.3,5.8,7.4,7.6
	C1356.7,436.8,1360.3,437.7,1364,437.7L1364,437.7z M1385,446.8v-16.6l0.7-14.3l-1.2-14.3v-41h11.2v86.2L1385,446.8z"/>
<path class="st0" d="M1440.8,447.5c-6,0.1-12-1.3-17.4-4.1c-4.8-2.6-8.9-6.4-11.6-11.2c-2.8-5-4.2-10.6-4.1-16.3
	c-0.1-5.7,1.3-11.3,4-16.3c2.6-4.6,6.4-8.5,11-11.1c4.8-2.7,10.3-4.1,15.9-4c5.5-0.1,11,1.3,15.8,4c4.6,2.6,8.3,6.5,10.8,11.1
	c2.7,5.1,4,10.9,3.9,16.7c0,0.5,0,1-0.1,1.6s-0.1,1.2-0.2,1.7h-52.4v-8h46.6l-4.5,2.8c0.1-3.7-0.7-7.3-2.4-10.6c-1.6-3-4-5.5-7-7.3
	c-6.5-3.5-14.3-3.5-20.7,0c-3,1.7-5.5,4.3-7.1,7.3c-1.7,3.3-2.6,7-2.6,10.7v1.9c-0.1,3.9,0.9,7.7,2.8,11c1.9,3.2,4.7,5.8,8,7.5
	c3.6,1.8,7.7,2.7,11.7,2.7c3.4,0,6.8-0.6,9.9-1.9c3-1.2,5.7-3.1,7.8-5.6l6.2,7.2c-2.8,3.3-6.4,5.8-10.4,7.4
	C1450.3,446.7,1445.6,447.5,1440.8,447.5z"/>
<g>
	<path class="st0" d="M807.3,98.4c-15.4-6.9-33.7-10.4-55-10.4H649.4v237.7l55.3,0v-65.5h47.6c21.3,0,39.6-3.5,55-10.5
		c15.4-7,27.3-16.9,35.7-29.7s12.6-28.1,12.6-46c0-17.7-4.2-32.9-12.6-45.8C834.6,115.2,822.7,105.3,807.3,98.4z M787.2,204.5
		c-8.6,7.2-21.2,10.9-38,10.9h-44.5v-82.5h44.5c16.7,0,29.4,3.6,38,10.7c8.6,7.1,12.9,17.3,12.9,30.4
		C800.1,187.1,795.8,197.3,787.2,204.5z"/>
	<path class="st0" d="M1017.5,160c-15.4-13.1-37-19.7-64.9-19.7c-14.4,0-28.8,1.9-42.8,5.7c-14.1,3.7-26.1,9.2-36,16.5l18.7,37
		c7.3-5.5,15.5-9.7,24.3-12.4c9.3-3,18.9-4.6,28.7-4.6c14.3,0,24.8,3.2,31.8,9.5c6.9,6.3,10.4,15.1,10.4,26.5v0.4h-41.8
		c-18.8,0-34,2.3-45.5,6.8s-20,10.9-25.3,19.2c-5.4,8.5-8.2,18.3-8,28.3c-0.1,10,2.8,19.8,8.3,28.2c5.5,8.4,13.4,15,23.6,19.9
		s22.3,7.3,36.3,7.3c16.1,0,29.2-3.1,39.4-9.4c6.7-4,12.3-9.6,16.3-16.1v22.8h49.6V221.5C1040.6,193.7,1032.9,173.2,1017.5,160z
		 M972.5,286.7c-7.4,4.1-15.8,6.3-24.3,6.1c-9,0-16.2-2-21.6-5.9c-5.2-3.7-8.2-9.8-8-16.1c-0.1-5.9,2.5-11.5,7-15.3
		c4.6-4.1,13.2-6.1,25.6-6.1h36.3v18.7l0-0.1C984.6,276.4,979.6,282.6,972.5,286.7z"/>
	<path class="st0" d="M1143.4,190.1c7.4-4,15.7-6,24.1-5.9c8.1-0.1,16,2,23.1,5.9c7,4,13,10.2,18,18.8l40.8-22.4
		c-6.2-14.6-17.2-26.6-31.1-34.1c-14.4-8-31.2-12.1-50.4-12.1c-19.7,0-37.2,4.1-52.5,12.3c-14.8,7.7-27.2,19.2-36,33.3
		c-8.7,14-13.1,30.2-13.1,48.6c0,18.1,4.3,34.3,13.1,48.6c8.7,14.2,21.2,25.8,36,33.4c15.3,8,32.8,12.1,52.5,12.1
		c19.2,0,36-4.1,50.4-12.2s24.7-19.5,31.1-34l-40.8-22.5c-5,8.8-11,15.2-18,19.2c-7,4-15,6-23.1,5.9c-8.4,0.1-16.7-1.9-24.1-5.9
		c-7.3-4-13.3-10-17.3-17.3c-4.3-7.6-6.4-16.7-6.4-27.3c0-10.6,2.2-19.7,6.4-27.2C1130.2,200,1136.2,194.1,1143.4,190.1z"/>
	<polygon class="st0" points="1404.9,325.8 1469.1,325.8 1386.2,220.5 1462.3,143.1 1399.1,143.1 1321.7,216.2 1321.7,73.8 
		1268.7,73.8 1268.7,325.8 1321.7,325.8 1321.7,279.5 1347.5,254.4 	"/>
</g>
<rect x="1268.7" y="73.8" class="st1" width="53" height="70.2"/>
<path class="st1" d="M325.5,512.7h-0.3l-37.1-0.2c-13.7-0.2-26.7-6.1-35.9-16.2c-0.4-0.4-0.7-0.9-1.1-1.4l-8.7-14.2
	c-2.6-4.3-1.5-9.9,2.5-12.9c3.8-2.6,9.1-1.7,11.7,2.1c0.1,0.2,0.3,0.4,0.4,0.6l8.2,13.4c6,6.3,14.2,9.9,22.9,10l37.1,0.2h0.2
	c9.2-0.1,17.9-4.1,24-11l121.3-136.8c5.8-6.7,9-15.2,9-24.1v-71.6c0-8.8-3.1-17.4-8.9-24c-6-7-14.8-11-24-11.1h-61.7
	c-27.8,0-50.4-24.1-50.4-53.7V98.1c-0.3-4.8,3.3-9,8.1-9.3c4.8-0.3,9,3.3,9.3,8.1c0,0.4,0,0.8,0,1.2v63.7c0,19.3,14.8,35.1,33,35.1
	h61.7c14.1,0.1,27.5,6.3,36.7,16.9c8.9,10.2,13.7,23.2,13.7,36.7v71.6c0.1,13.5-4.8,26.6-13.8,36.8L362.2,495.8
	C352.9,506.4,339.6,512.6,325.5,512.7z"/>
<path class="st1" d="M246,431.9c-5-0.1-8.9-4.3-8.7-9.3c0,0,0,0,0,0v-63.4c0.1-9.3-3.4-18.2-9.7-25c-6-6.6-14.5-10.3-23.4-10.3h-0.1
	l-61.4,0.1h-0.1c-13.9-0.1-27.1-6.1-36.4-16.4C97,297.3,91.9,283.9,92,270.1v-72.4c-0.1-14,5.1-27.6,14.6-37.9l125.6-135
	c9.3-10.1,22.3-15.9,36-16h0.1l32.6,0.1c13.4,0.1,26.2,5.7,35.3,15.5c0.1,0.2,0.3,0.3,0.4,0.5l10.2,12.5c3.1,3.9,2.8,9.6-0.8,13.1
	c-3.4,3.2-8.7,3.1-11.8-0.3c-0.2-0.2-0.3-0.4-0.5-0.6l-10-12.2c-5.9-6.3-14.2-9.8-22.8-9.9l-32.6-0.1h-0.1
	c-9,0.1-17.5,3.9-23.6,10.5L119,172.9c-6.2,6.8-9.7,15.6-9.6,24.8v72.4c-0.1,9.1,3.3,17.8,9.3,24.5c6.1,6.8,14.7,10.7,23.8,10.8l0,0
	l61.4-0.1h0.1c13.6,0,26.6,5.7,35.8,15.8c9.6,10.3,15,24,14.9,38.1v63.4C254.9,427.6,251,431.7,246,431.9z"/>
<path class="st0" d="M464.9,305.2h-79.6c-27.9,0-50.5,24.1-50.5,53.8v45.7c0.1,9-3.2,17.7-9.2,24.4c-6.1,6.8-14.7,10.8-23.9,10.8
	h-64.5c-8.3,0-16.2-3.3-22.1-9L72,293.8c-7.1-6.9-11-16.3-11-26.1v-20c0-7.1,2.8-14,7.8-19.1l10-5.7c4.3-2.6,5.9-8.1,3.6-12.6
	c-0.1-0.2-0.2-0.4-0.3-0.6c-2.3-4.1-7.4-5.6-11.5-3.3l-11,6.2c-0.6,0.4-1.2,0.8-1.8,1.3c-9.2,8.8-14.4,21-14.3,33.7v20
	c-0.1,15.1,6,29.5,16.7,40l143.1,137.1c9.1,8.8,21.2,13.8,33.8,13.8h64.5c13.9-0.1,27.2-6.1,36.5-16.5c9.1-10.2,14.1-23.5,14.1-37.2
	V359c0-19.4,14.8-35.2,33.1-35.2h79.6c4.7-0.3,8.5-4,8.8-8.8C474,309.9,470,305.5,464.9,305.2z"/>
<path class="st0" d="M526.2,185.6L384.3,73.4c-8.5-6.8-19.1-10.6-30-10.7l-66-0.4h-0.3c-13.8,0.1-26.9,5.9-36.2,16.1
	c-9.5,10.3-14.7,23.9-14.6,37.9v45c0,19.6-15,35.5-33.3,35.5h-79.3c-4.7,0.3-8.4,4-8.7,8.7c-0.3,5.1,3.5,9.6,8.7,9.9h79.3
	c28,0,50.8-24.2,50.8-54.1v-45c0-9.2,3.4-18.1,9.6-24.8c6.1-6.7,14.7-10.5,23.8-10.6h0.2l66,0.4c7.2,0,14.1,2.5,19.7,7l141.8,112.2
	c8.4,6.8,13.3,17,13.4,27.8l0.7,39.6c0.2,9.1-3,17.9-9,24.7L508.9,303c-3.8,3.4-4.3,9-1.3,13.1c1.6,2.2,4.1,3.4,6.8,3.5
	c2,0,4-0.7,5.5-2.1l12.4-10.7c0.3-0.3,0.6-0.5,0.8-0.8c9.4-10.5,14.5-24.3,14.3-38.4l-0.7-39.6C546.4,211.3,538.7,195.5,526.2,185.6
	z"/>
</svg>
