<svg width="64" height="64" viewBox="0 0 64 64" fill="none" xmlns="http://www.w3.org/2000/svg">
<g id="Group">
<path id="Vector" d="M10.5824 7.29197C12.5368 7.29197 14.1211 5.70764 14.1211 3.75328C14.1211 1.79892 12.5368 0.2146 10.5824 0.2146C9.27258 0.2146 8.12906 0.926229 7.51722 1.98394H7.04374C4.11221 1.98394 1.73572 4.36043 1.73572 7.29197V23.216H5.2744V7.29197C5.2744 6.31479 6.06657 5.52262 7.04374 5.52262H7.51722C8.12906 6.58034 9.27258 7.29197 10.5824 7.29197Z" fill="white"/>
<path id="Vector_2" fill-rule="evenodd" clip-rule="evenodd" d="M7.32707 23.216H5.27428H1.7356C0.758429 23.216 -0.0420379 24.0099 0.0466415 24.9831C0.457996 29.497 2.43569 33.7472 5.66683 36.9783C8.03623 39.3477 10.9535 41.043 14.121 41.941V46.2175C14.121 48.5289 15.5984 50.4952 17.6604 51.2236C17.7358 58.2435 23.4498 63.9109 30.4874 63.9109C37.572 63.9109 43.3151 58.1678 43.3151 51.0832V44.0058C43.3151 40.3413 46.2857 37.3708 49.9502 37.3708C53.6146 37.3708 56.5852 40.3413 56.5852 44.0058V48.2888C54.5235 49.0175 53.0465 50.9837 53.0465 53.2948C53.0465 56.2265 55.4229 58.6029 58.3545 58.6029C61.2861 58.6029 63.6625 56.2265 63.6625 53.2948C63.6625 50.9837 62.1855 49.0175 60.1239 48.2888V44.0058C60.1239 38.3871 55.5689 33.8321 49.9502 33.8321C44.3314 33.8321 39.7764 38.3871 39.7764 44.0058V51.0832C39.7764 56.2134 35.6176 60.3722 30.4874 60.3722C25.4039 60.3722 21.2743 56.2887 21.1994 51.2231C23.2605 50.4942 24.737 48.5282 24.737 46.2175V41.941C27.9045 41.043 30.822 39.3477 33.1913 36.9783C36.4225 33.7472 38.4001 29.497 38.8114 24.9831C38.9003 24.0099 38.0996 23.216 37.1224 23.216V7.29197C37.1224 4.36043 34.746 1.98394 31.8144 1.98394H31.3409C30.7291 0.926229 29.5856 0.2146 28.2757 0.2146C26.3213 0.2146 24.737 1.79892 24.737 3.75328C24.737 5.70764 26.3213 7.29197 28.2757 7.29197C29.5856 7.29197 30.7291 6.58034 31.3409 5.52262H31.8144C32.7916 5.52262 33.5837 6.31479 33.5837 7.29197V23.216H31.5311C30.5539 23.216 29.7772 24.0138 29.6107 24.9769C29.2497 27.0636 28.2531 29.0048 26.7353 30.5224C24.7977 32.4601 22.1695 33.5488 19.429 33.5488C16.6887 33.5488 14.0605 32.4601 12.1227 30.5224C10.6051 29.0048 9.60828 27.0636 9.24734 24.9769C9.08084 24.0138 8.3041 23.216 7.32707 23.216ZM32.8415 26.7547H34.955C34.2938 29.6557 32.8266 32.3386 30.6891 34.4761C27.7028 37.4624 23.6524 39.1401 19.429 39.1401C15.2058 39.1401 11.1554 37.4624 8.1691 34.4761C6.03151 32.3386 4.56437 29.6557 3.90308 26.7547H6.01658C6.6371 29.1064 7.87097 31.275 9.62049 33.0246C12.222 35.626 15.7502 37.0875 19.429 37.0875C23.108 37.0875 26.6362 35.626 29.2377 33.0246C30.9872 31.275 32.221 29.1064 32.8415 26.7547ZM58.3545 51.5255C59.3317 51.5255 60.1239 52.3176 60.1239 53.2948C60.1239 54.272 59.3317 55.0642 58.3545 55.0642C57.3773 55.0642 56.5852 54.272 56.5852 53.2948C56.5852 52.3176 57.3773 51.5255 58.3545 51.5255ZM21.1984 42.6788V46.2175C21.1984 47.1947 20.4062 47.9868 19.429 47.9868C18.4518 47.9868 17.6597 47.1947 17.6597 46.2175V42.6788H21.1984Z" fill="white"/>
</g>
</svg>
