<svg width="59" height="67" viewBox="0 0 59 67" fill="none" xmlns="http://www.w3.org/2000/svg">
<path id="21-Mental Health" d="M57.5605 33.7448L52.7943 25.7479C52.7248 21.514 51.6293 17.3602 49.6017 13.6427C47.5741 9.92528 44.675 6.7552 41.153 4.40442C37.631 2.05364 33.5913 0.59235 29.3805 0.145904C25.1696 -0.300542 20.9133 0.281184 16.9767 1.84118C13.0401 3.40117 9.54063 5.89287 6.7786 9.1025C4.01658 12.3121 2.0744 16.1439 1.11869 20.2691C0.162977 24.3943 0.222257 28.6898 1.29144 32.787C2.36063 36.8842 4.40781 40.661 7.25736 43.7932V64.8971C7.25736 65.2229 7.38678 65.5354 7.61715 65.7658C7.84752 65.9961 8.15997 66.1255 8.48576 66.1255H33.4347C33.7604 66.1255 34.0729 65.9961 34.3033 65.7658C34.5336 65.5354 34.6631 65.2229 34.6631 64.8971V56.9985H47.2296C48.7131 56.992 50.1334 56.3973 51.179 55.3448C52.2245 54.2924 52.8099 52.8682 52.8066 51.3847V40.6853L55.2634 39.85C55.8601 39.6519 56.4045 39.3217 56.8558 38.8839C57.3071 38.4461 57.6537 37.912 57.8698 37.3215C58.086 36.7311 58.166 36.0994 58.1039 35.4738C58.0418 34.8481 57.8393 34.2444 57.5114 33.708L57.5605 33.7448ZM55.5951 36.4964C55.5059 36.7343 55.3648 36.9492 55.182 37.1256C54.9993 37.3019 54.7795 37.4353 54.5386 37.516L51.1851 38.6339C50.9308 38.7193 50.7115 38.8857 50.5607 39.1075C50.4099 39.3293 50.3358 39.5944 50.3498 39.8623V51.3847C50.3514 51.7961 50.272 52.2037 50.116 52.5844C49.9601 52.965 49.7307 53.3112 49.441 53.6033C49.1513 53.8953 48.8069 54.1274 48.4274 54.2863C48.048 54.4452 47.641 54.5278 47.2296 54.5294H33.4347C33.1089 54.5294 32.7964 54.6588 32.566 54.8892C32.3357 55.1196 32.2062 55.432 32.2062 55.7578V63.6687H9.71417V43.3386C9.72111 43.2815 9.72111 43.2238 9.71417 43.1667C9.72003 43.0726 9.72003 42.9782 9.71417 42.8841C9.66975 42.7968 9.61622 42.7145 9.55447 42.6385C9.53027 42.5907 9.50147 42.5455 9.46849 42.5033C6.75146 39.6994 4.76616 36.27 3.68771 32.5175C2.60926 28.765 2.47079 24.8048 3.28451 20.9861C4.09824 17.1675 5.83915 13.6078 8.3537 10.6209C10.8683 7.63406 14.0792 5.31189 17.7032 3.85921C21.3273 2.40653 25.2532 1.86798 29.1346 2.29107C33.016 2.71416 36.7336 4.08587 39.9596 6.28524C43.1856 8.4846 45.8208 11.444 47.6328 14.9025C49.4448 18.3609 50.3779 22.2121 50.3498 26.1164C50.3444 26.1407 50.3444 26.1658 50.3498 26.1901C50.3438 26.2719 50.3438 26.354 50.3498 26.4358C50.371 26.5161 50.3998 26.5943 50.4358 26.6692C50.4358 26.6692 50.4358 26.6692 50.4358 26.7429L55.3494 35.0101C55.4957 35.2252 55.5934 35.4695 55.6359 35.7262C55.6783 35.9829 55.6644 36.2457 55.5951 36.4964ZM36.1617 8.39054C31.8499 6.12744 26.854 5.53687 22.1333 6.7322C17.3932 7.83731 13.2285 10.6546 10.4389 14.6431C9.11386 16.5081 8.20167 18.6341 7.7632 20.8794C7.32472 23.1248 7.37004 25.4378 7.89613 27.6642C8.46119 30.0227 9.41935 31.4968 10.8197 32.1725C11.4254 32.462 12.0893 32.6091 12.7606 32.6024C14.6524 32.6024 16.8389 31.5951 19.4186 30.4158C21.9083 29.1951 24.5076 28.2121 27.1821 27.4799C29.8965 26.8958 32.6609 26.5749 35.437 26.5218C39.2941 26.3375 42.3406 26.1901 43.8761 24.065C44.8097 22.8366 44.9817 21.08 44.4043 18.7214C43.8407 16.5138 42.8145 14.4511 41.3934 12.67C39.9724 10.889 38.1891 9.43026 36.1617 8.39054ZM41.9106 22.6646C41.063 23.7824 38.3974 23.893 35.3141 24.065C32.3848 24.1214 29.4679 24.4629 26.6047 25.0846C23.7771 25.8527 21.0294 26.8893 18.399 28.1801C15.5859 29.47 13.166 30.5755 11.9007 29.9613C11.2128 29.6297 10.6723 28.6592 10.2792 27.0869C9.83705 25.1945 9.80336 23.2297 10.1804 21.3233C10.5574 19.4169 11.3366 17.6128 12.4658 16.0312C14.9194 12.5444 18.5706 10.0826 22.723 9.1153C24.1432 8.77431 25.5986 8.60115 27.0592 8.59937C29.8293 8.58243 32.5603 9.25356 35.007 10.5525C36.734 11.4391 38.2526 12.683 39.4619 14.2015C40.6713 15.7201 41.5437 17.4786 42.0212 19.3602C42.2279 19.8897 42.3247 20.4557 42.3057 21.0238C42.2867 21.5919 42.1523 22.1501 41.9106 22.6646Z" fill="white"/>
</svg>
